<svg width="20" height="20" viewBox="0 0 20 20" fill="none" xmlns="http://www.w3.org/2000/svg">
<path d="M10 20C7.34783 20 4.80424 18.9464 2.92898 17.071C1.05358 15.1956 0 12.6521 0 10C0 7.34793 1.05358 4.80424 2.92898 2.92898C4.80438 1.05358 7.34793 0 10 0C12.6521 0 15.1958 1.05358 17.071 2.92898C18.9464 4.80438 20 7.34793 20 10C19.9968 12.6513 18.9423 15.1929 17.0677 17.0677C15.1929 18.9423 12.6512 19.9969 10 20ZM18.3334 9.9999C18.3342 8.87547 18.1061 7.76255 17.663 6.72902C16.9755 7.04226 16.2679 7.30955 15.5451 7.52907C15.9295 9.1539 15.9295 10.8459 15.5451 12.4705C16.2679 12.69 16.9755 12.9574 17.663 13.2706C18.1061 12.2371 18.3342 11.1242 18.3334 9.99971V9.9999ZM1.66659 9.9999C1.66584 11.1243 1.89389 12.2373 2.33698 13.2708C3.02451 12.9575 3.73208 12.6903 4.45495 12.4707C4.07046 10.8459 4.07046 9.15394 4.45495 7.52926C3.73208 7.30976 3.02451 7.04245 2.33698 6.72921C1.89389 7.76269 1.66582 8.87561 1.66659 10.0001V9.9999ZM5.83329 9.9999C5.83478 10.6961 5.91439 11.3898 6.07083 12.0682C7.09184 11.8591 8.12814 11.7325 9.16962 11.6899V8.30997C8.12814 8.26737 7.09184 8.1407 6.07083 7.93162C5.91439 8.61001 5.83478 9.30363 5.83329 9.99992V9.9999ZM10.8362 17.1419C11.9556 16.2003 12.8375 15.0085 13.4108 13.6627C12.5611 13.4977 11.7006 13.3954 10.8362 13.3563V17.1419ZM9.16952 17.1465V13.3546C8.30289 13.3933 7.4405 13.4956 6.58897 13.661C7.16302 15.0096 8.04712 16.2038 9.16952 17.1463V17.1465ZM9.16952 6.64309V2.85139C8.04731 3.79354 7.16316 4.98703 6.58897 6.33504C7.44055 6.50097 8.30289 6.60383 9.16952 6.64309V6.64309ZM10.8362 2.85773V6.64309C11.7006 6.60403 12.5611 6.50172 13.4108 6.33673C12.8375 4.99091 11.9556 3.79913 10.8362 2.85755V2.85773ZM10.8362 8.30968V11.6897V11.6895C11.8756 11.7327 12.9099 11.8592 13.929 12.0679C14.2458 10.7072 14.2458 9.292 13.929 7.93132C12.9099 8.14002 11.8756 8.26651 10.8362 8.30967V8.30968ZM16.8529 14.7297C16.2661 14.4704 15.6637 14.2478 15.0491 14.0631C14.4591 15.5454 13.5538 16.8819 12.3962 17.9798C14.2067 17.432 15.778 16.2861 16.8529 14.7297ZM7.60283 17.9798C6.44525 16.8819 5.54015 15.5454 4.9499 14.0631C4.33552 14.2478 3.73299 14.4704 3.14613 14.7297C4.22166 16.2858 5.7931 17.4309 7.60374 17.9783L7.60283 17.9798ZM3.14446 5.27108C3.73132 5.53057 4.33385 5.75323 4.94824 5.93775C5.53848 4.4556 6.44359 3.11911 7.60117 2.02105C5.79182 2.56906 4.22166 3.71416 3.14708 5.26961L3.14446 5.27108ZM12.3945 2.02105C13.5523 3.11911 14.4574 4.4556 15.0475 5.93775C15.6621 5.75323 16.2644 5.53057 16.8513 5.27108C15.7767 3.71507 14.2061 2.56944 12.3962 2.02105H12.3945Z" fill="#0357D6"/>
</svg>
