<svg width="31" height="26" viewBox="0 0 31 26" fill="none" xmlns="http://www.w3.org/2000/svg">
<g clip-path="url(#clip0_1_4560)">
<path d="M15.3175 2.34299C19.3181 2.34299 19.7877 2.35848 21.3688 2.4204C22.8312 2.47717 23.6217 2.68877 24.1508 2.86939C24.8522 3.10679 25.3515 3.38547 25.8746 3.83962C26.3977 4.29377 26.7247 4.72727 26.9922 5.33624C27.1943 5.79555 27.444 6.48194 27.5093 7.75149C27.5807 9.12426 27.5985 9.53196 27.5985 13.0052C27.5985 16.4784 27.5807 16.8861 27.5093 18.2588C27.444 19.5284 27.2002 20.2148 26.9922 20.6741C26.7187 21.283 26.3977 21.7166 25.8746 22.1707C25.3515 22.6248 24.8522 22.9087 24.1508 23.1409C23.6217 23.3164 22.8312 23.5331 21.3688 23.5899C19.7877 23.6518 19.3181 23.6673 15.3175 23.6673C11.317 23.6673 10.8474 23.6518 9.26619 23.5899C7.80388 23.5331 7.01329 23.3216 6.48424 23.1409C5.78281 22.9035 5.28349 22.6248 4.76039 22.1707C4.23729 21.7166 3.91035 21.283 3.64285 20.6741C3.44075 20.2148 3.19108 19.5284 3.1257 18.2588C3.05436 16.8861 3.03653 16.4784 3.03653 13.0052C3.03653 9.53196 3.05436 9.12426 3.1257 7.75149C3.19108 6.48194 3.4348 5.79555 3.64285 5.33624C3.91629 4.72727 4.23729 4.29377 4.76039 3.83962C5.28349 3.38547 5.78281 3.10163 6.48424 2.86939C7.01329 2.69393 7.80388 2.47717 9.26619 2.4204C10.8474 2.35331 11.3229 2.34299 15.3175 2.34299ZM15.3175 0C11.2516 0 10.7404 0.0154823 9.14136 0.0774117C7.54828 0.139341 6.46047 0.361254 5.50937 0.681223C4.52261 1.01151 3.69041 1.4605 2.8582 2.18301C2.026 2.90552 1.51478 3.63319 1.1284 4.48472C0.759853 5.31044 0.504247 6.25486 0.432915 7.64311C0.361583 9.0262 0.34375 9.47003 0.34375 13C0.34375 16.53 0.361583 16.9738 0.432915 18.362C0.504247 19.7451 0.759853 20.6896 1.1284 21.5204C1.50884 22.3771 2.026 23.0996 2.8582 23.8222C3.69041 24.5447 4.52856 24.9885 5.50937 25.3239C6.46047 25.6439 7.54828 25.8658 9.1473 25.9277C10.7463 25.9897 11.2516 26.0052 15.3235 26.0052C19.3953 26.0052 19.9006 25.9897 21.4996 25.9277C23.0927 25.8658 24.1805 25.6439 25.1376 25.3239C26.1243 24.9936 26.9565 24.5447 27.7887 23.8222C28.6209 23.0996 29.1321 22.372 29.5185 21.5204C29.8871 20.6947 30.1427 19.7503 30.214 18.362C30.2853 16.9738 30.3032 16.5351 30.3032 13C30.3032 9.46487 30.2853 9.0262 30.214 7.63795C30.1427 6.25486 29.8871 5.31044 29.5185 4.47956C29.1381 3.62287 28.6209 2.90036 27.7887 2.17785C26.9565 1.45534 26.1184 1.01151 25.1376 0.676062C24.1865 0.356094 23.0986 0.13418 21.4996 0.0722509C19.8947 0.0154823 19.3834 0 15.3175 0Z" fill="white"/>
<path d="M15.3175 2.34299C19.3181 2.34299 19.7877 2.35848 21.3688 2.4204C22.8312 2.47717 23.6217 2.68877 24.1508 2.86939C24.8522 3.10679 25.3515 3.38547 25.8746 3.83962C26.3977 4.29377 26.7247 4.72727 26.9922 5.33624C27.1943 5.79555 27.444 6.48194 27.5093 7.75149C27.5807 9.12426 27.5985 9.53196 27.5985 13.0052C27.5985 16.4784 27.5807 16.8861 27.5093 18.2588C27.444 19.5284 27.2002 20.2148 26.9922 20.6741C26.7187 21.283 26.3977 21.7166 25.8746 22.1707C25.3515 22.6248 24.8522 22.9087 24.1508 23.1409C23.6217 23.3164 22.8312 23.5331 21.3688 23.5899C19.7877 23.6518 19.3181 23.6673 15.3175 23.6673C11.317 23.6673 10.8474 23.6518 9.26619 23.5899C7.80388 23.5331 7.01329 23.3216 6.48424 23.1409C5.78281 22.9035 5.28349 22.6248 4.76039 22.1707C4.23729 21.7166 3.91035 21.283 3.64285 20.6741C3.44075 20.2148 3.19108 19.5284 3.1257 18.2588C3.05436 16.8861 3.03653 16.4784 3.03653 13.0052C3.03653 9.53196 3.05436 9.12426 3.1257 7.75149C3.19108 6.48194 3.4348 5.79555 3.64285 5.33624C3.91629 4.72727 4.23729 4.29377 4.76039 3.83962C5.28349 3.38547 5.78281 3.10163 6.48424 2.86939C7.01329 2.69393 7.80388 2.47717 9.26619 2.4204C10.8474 2.35331 11.3229 2.34299 15.3175 2.34299Z" fill="white"/>
<path d="M15.3175 6.32715C11.0733 6.32715 7.62555 9.31524 7.62555 13.0052C7.62555 16.6951 11.0673 19.6832 15.3175 19.6832C19.5677 19.6832 23.0095 16.6951 23.0095 13.0052C23.0095 9.31524 19.5677 6.32715 15.3175 6.32715ZM15.3175 17.3351C12.5593 17.3351 10.3243 15.3946 10.3243 13C10.3243 10.6054 12.5593 8.66498 15.3175 8.66498C18.0757 8.66498 20.3107 10.6054 20.3107 13C20.3107 15.3946 18.0757 17.3351 15.3175 17.3351Z" fill="#05042A"/>
<path d="M23.3126 7.61735C24.3041 7.61735 25.1078 6.91957 25.1078 6.0588C25.1078 5.19803 24.3041 4.50024 23.3126 4.50024C22.3212 4.50024 21.5175 5.19803 21.5175 6.0588C21.5175 6.91957 22.3212 7.61735 23.3126 7.61735Z" fill="#05042A"/>
</g>
<defs>
<clipPath id="clip0_1_4560">
<rect x="0.34375" width="29.9475" height="26" fill="white"/>
</clipPath>
</defs>
</svg>
