<svg width="31" height="26" viewBox="0 0 31 26" fill="none" xmlns="http://www.w3.org/2000/svg">
<g clip-path="url(#clip0_1_4561)">
<path d="M27.7993 0H2.27321C1.68689 0 1.12459 0.202212 0.710002 0.562152C0.295414 0.922092 0.0625 1.41027 0.0625 1.91931V24.0807C0.0625 24.5897 0.295414 25.0779 0.710002 25.4379C1.12459 25.7978 1.68689 26 2.27321 26H27.7993C28.3856 26 28.9479 25.7978 29.3625 25.4379C29.7771 25.0779 30.01 24.5897 30.01 24.0807V1.91931C30.01 1.41027 29.7771 0.922092 29.3625 0.562152C28.9479 0.202212 28.3856 0 27.7993 0ZM8.98852 22.1488H4.486V9.73195H8.98852V22.1488ZM6.73414 8.01125C6.22341 8.00875 5.72497 7.87496 5.30174 7.62676C4.8785 7.37856 4.54944 7.02708 4.35607 6.61666C4.16271 6.20625 4.11371 5.75531 4.21526 5.32074C4.31681 4.88618 4.56436 4.48747 4.92667 4.17493C5.28898 3.86239 5.7498 3.65004 6.25099 3.56467C6.75217 3.47929 7.27126 3.52473 7.74273 3.69523C8.2142 3.86574 8.61693 4.15368 8.90009 4.52271C9.18325 4.89175 9.33415 5.32533 9.33375 5.76875C9.33857 6.06562 9.27449 6.36029 9.14535 6.63521C9.0162 6.91012 8.82462 7.15964 8.58203 7.36891C8.33944 7.57817 8.05081 7.74289 7.73334 7.85325C7.41586 7.9636 7.07605 8.01734 6.73414 8.01125ZM25.5844 22.1596H21.084V15.3761C21.084 13.3756 20.1045 12.7581 18.84 12.7581C17.5048 12.7581 16.1946 13.6319 16.1946 15.4267V22.1596H11.6921V9.74097H16.022V11.4617H16.0803C16.5149 10.6979 18.0372 9.3925 20.3603 9.3925C22.8725 9.3925 25.5865 10.6871 25.5865 14.4788L25.5844 22.1596Z" fill="white"/>
</g>
<defs>
<clipPath id="clip0_1_4561">
<rect x="0.0625" width="29.9475" height="26" fill="white"/>
</clipPath>
</defs>
</svg>
