<svg width="29" height="22" viewBox="0 0 29 22" fill="none" xmlns="http://www.w3.org/2000/svg">
<path d="M25.9002 5.77925C25.9118 6.00805 25.9118 6.22645 25.9118 6.45525C25.9233 13.3921 20.053 21.4001 9.31777 21.4001C6.15151 21.4001 3.04302 20.5785 0.373657 19.0393C0.835885 19.0913 1.29811 19.1121 1.76034 19.1121C4.38349 19.1121 6.9373 18.3217 9.00577 16.8553C6.50973 16.8137 4.31415 15.3473 3.55148 13.2049C4.42971 13.3609 5.33105 13.3297 6.18617 13.1113C3.47059 12.6329 1.51767 10.4801 1.50612 7.97365C1.50612 7.95285 1.50612 7.93205 1.50612 7.91125C2.31502 8.31686 3.22792 8.54566 4.15237 8.56646C1.59856 7.02725 0.801218 3.95924 2.34968 1.55683C5.3195 4.84324 9.68755 6.82965 14.3792 7.04805C13.9054 5.22805 14.5525 3.31444 16.0663 2.02484C18.4121 0.0384292 22.1099 0.14243 24.3286 2.25364C25.6344 2.02484 26.894 1.58803 28.038 0.974432C27.5989 2.19124 26.686 3.22084 25.4726 3.87604C26.6282 3.75124 27.7607 3.47044 28.8238 3.05444C28.038 4.11524 27.0442 5.03045 25.9002 5.77925Z" fill="white"/>
</svg>
