<svg width="1920" height="514" viewBox="0 0 1920 514" fill="none" xmlns="http://www.w3.org/2000/svg">
<mask id="mask0_1_4633" style="mask-type:alpha" maskUnits="userSpaceOnUse" x="0" y="0" width="1920" height="514">
<rect width="1920" height="514" fill="#D9D9D9"/>
</mask>
<g mask="url(#mask0_1_4633)">
<path d="M970.114 435.619C951.791 435.619 935.033 433.261 919.349 428.504C903.99 423.846 889.603 417 875.361 407.579C862.696 399.199 850.453 388.962 837.933 376.289C814.708 352.776 794.214 324.413 774.397 296.982C764.488 283.267 754.243 269.086 743.885 255.85C665.926 156.241 555.35 84.7338 432.53 54.4972C388.158 43.5733 342.681 38.1606 297.277 38.1606C217.004 38.1606 136.922 55.0628 63.283 88.2987L63.1641 88.0348C91.608 75.1964 121.54 64.6379 152.128 56.6553C182.445 48.7394 213.715 43.2716 245.071 40.4028C276.424 37.5312 308.169 37.2324 339.421 39.5123C370.948 41.8126 402.302 46.7582 432.602 54.2187C462.903 61.6793 492.968 71.849 521.96 84.4495C550.697 96.9398 578.674 111.939 605.114 129.039C631.553 146.135 656.711 165.497 679.89 186.582C703.276 207.853 724.885 231.102 744.117 255.676C754.481 268.918 764.726 283.099 774.638 296.816C814.438 351.906 855.593 408.869 919.439 428.231C968.574 443.132 1022.46 431.727 1068.7 418.604C1143.71 397.31 1217.42 367.921 1288.69 339.5C1321.9 326.258 1356.23 312.567 1390.26 299.868C1452.96 276.471 1505.06 260.178 1554.23 248.59C1614.96 234.275 1670.37 227.441 1723.62 227.661C1752.57 227.789 1781.43 230.275 1809.4 235.058C1838.29 239.998 1866.27 247.395 1892.56 257.045C1919.97 267.108 1945.72 279.688 1969.09 294.438C1993.61 309.913 2015.79 327.952 2035.01 348.057L2034.8 348.257C1962.24 272.346 1848.82 228.497 1723.62 227.952C1722.79 227.949 1721.94 227.946 1721.12 227.946C1599.51 227.946 1480.57 266.478 1390.37 300.141C1356.34 312.84 1322.01 326.531 1288.8 339.77C1217.52 368.193 1143.81 397.586 1068.78 418.882C1048.44 424.655 1021.55 431.637 993.99 434.387C985.728 435.205 977.783 435.619 970.114 435.619Z" fill="url(#paint0_linear_1_4633)"/>
<path d="M963.118 426.059C944.392 426.059 927.312 423.764 911.35 419.138C900.423 415.967 889.624 411.593 879.248 406.14C832.835 381.763 798.798 338.038 765.881 295.755C755.793 282.797 745.362 269.396 734.827 256.912C720.544 239.969 704.892 223.592 688.306 208.242C614.397 139.881 522.64 91.1762 422.961 67.3878C411.773 64.7163 400.318 62.3349 388.922 60.3102C353.621 54.0331 317.719 50.9294 281.93 50.9294C203.734 50.9294 126.005 65.7373 55.7448 94.6367L55.6172 94.3293C106.82 73.2704 161.738 59.6256 218.852 53.7721C275.755 47.9417 332.994 50.0302 388.977 59.9824C400.382 62.01 411.84 64.3914 423.036 67.0658C472.487 78.8658 520.49 97.0414 565.712 121.082C610.724 145.013 652.044 174.254 688.529 207.998C705.127 223.357 720.788 239.743 735.079 256.697C745.62 269.188 756.054 282.589 766.142 295.552C799.036 337.809 833.052 381.501 879.402 405.847C889.757 411.291 900.536 415.657 911.44 418.822C960.035 432.913 1011.69 423.207 1060.27 410.624C1070.82 407.889 1081.73 404.91 1092.69 401.774C1156.6 383.497 1219.75 360.55 1280.83 338.36C1286.55 336.28 1292.28 334.203 1298 332.126C1330.84 320.187 1356.03 311.23 1379.68 303.082C1421.4 288.773 1459.1 276.758 1494.91 266.354C1533.94 255.018 1568.8 246.507 1601.48 240.337C1639.52 233.152 1674.74 229.068 1709.14 227.847C1738.22 226.814 1766.96 228.1 1794.57 231.664C1824.01 235.467 1852.31 241.892 1878.67 250.762C1906.82 260.239 1933.35 272.552 1957.53 287.36C1982.84 302.861 2005.66 321.159 2025.36 341.745L2025.12 341.974C1986.74 301.867 1936.06 270.435 1878.57 251.076C1826.99 233.724 1769.99 226.023 1709.15 228.181C1645.74 230.432 1577.69 242.661 1495 266.676C1459.19 277.08 1421.51 289.092 1379.79 303.401C1356.14 311.546 1330.95 320.503 1298.11 332.442C1292.39 334.519 1286.67 336.596 1280.95 338.676C1219.86 360.869 1156.7 383.816 1092.78 402.099C1081.82 405.238 1070.91 408.214 1060.35 410.952C1039.97 416.231 1013.09 422.601 985.822 425.023C977.987 425.711 970.425 426.059 963.118 426.059Z" fill="url(#paint1_linear_1_4633)"/>
<path d="M956.337 416.511C938.423 416.511 920.662 414.564 903.345 409.775C892.45 406.759 881.645 402.614 871.229 397.459C824.818 374.541 790.561 333.879 757.43 294.558C747.141 282.346 736.501 269.719 725.766 257.977C711.41 242.241 695.686 227.01 679.027 212.701C604.886 149.098 513.028 103.311 413.387 80.2824C402.219 77.7008 390.785 75.3802 379.402 73.3875C267.039 53.689 149.417 63.4904 48.2008 100.979L48.0703 100.625C98.6841 81.8777 153.159 69.9908 209.977 65.2917C266.537 60.6158 323.562 63.2148 379.466 73.0133C390.854 75.009 402.294 77.3324 413.471 79.914C462.872 91.331 510.881 108.578 556.158 131.178C601.252 153.684 642.673 181.017 679.274 212.414C695.944 226.731 711.677 241.977 726.044 257.722C736.785 269.47 747.425 282.099 757.717 294.314C790.822 333.607 825.056 374.239 871.397 397.123C881.79 402.268 892.575 406.402 903.446 409.413C951.58 422.727 1003.21 414.028 1051.85 402.646C1062.38 400.177 1073.24 397.503 1084.12 394.695C1148.65 378.065 1212.22 357.259 1273.7 337.137C1278.43 335.588 1283.17 334.036 1287.91 332.487C1316.79 322.99 1343.35 314.425 1369.1 306.297C1406.31 294.662 1445.01 282.926 1484.14 271.408C1525.21 259.326 1558.63 250.601 1589.33 243.953C1627.11 235.77 1661.56 230.563 1694.67 228.034C1724.02 225.792 1752.8 225.893 1780.21 228.338C1810.28 231.019 1839.02 236.553 1865.65 244.788C1894.35 253.682 1921.5 265.702 1946.35 280.516C1972.3 295.988 1995.64 314.462 2015.73 335.428L2015.45 335.689C1976.15 294.668 1924.31 263.358 1865.54 245.148C1814.29 229.296 1756.81 223.665 1694.69 228.408C1619.64 234.14 1546.19 253.542 1484.24 271.767C1445.12 283.283 1406.42 295.022 1369.22 306.654C1343.47 314.781 1316.91 323.347 1288.02 332.844C1283.29 334.393 1278.55 335.942 1273.82 337.494C1212.33 357.618 1148.76 378.428 1084.21 395.06C1073.33 397.868 1062.47 400.543 1051.93 403.011C1020.74 410.312 988.3 416.511 956.337 416.511Z" fill="url(#paint2_linear_1_4633)"/>
<path d="M949.658 406.961C929.895 406.961 911.99 404.795 895.337 400.409C884.477 397.543 873.666 393.63 863.209 388.774C816.842 367.324 782.385 329.734 749.062 293.383C738.544 281.908 727.666 270.044 716.705 259.039C702.291 244.518 686.494 230.427 669.752 217.153C595.378 158.307 503.418 115.435 403.812 93.1697C392.662 90.6781 381.245 88.4184 369.883 86.4547C257.581 67.0463 140.658 74.4546 40.654 107.313L40.5234 106.916C140.591 74.0369 257.584 66.6257 369.953 86.0428C381.323 88.0065 392.746 90.2691 403.902 92.7636C453.257 103.795 501.269 120.114 546.598 141.272C591.773 162.354 633.293 187.775 670.01 216.825C686.764 230.11 702.573 244.213 716.998 258.743C727.965 269.754 738.846 281.621 749.366 293.099C782.66 329.421 817.091 366.979 863.38 388.394C873.817 393.241 884.601 397.146 895.438 400.003C943.044 412.534 994.691 404.844 1043.41 394.666C1053.94 392.464 1064.74 390.091 1075.53 387.617C1141.1 372.597 1205.46 353.882 1267.71 335.782L1277.8 332.849C1306.82 324.339 1333.22 316.704 1358.51 309.511C1365.16 307.619 1371.84 305.725 1378.54 303.825C1409.49 295.045 1441.5 285.963 1473.35 276.46C1545.72 254.897 1611.23 236.382 1680.18 228.222C1743.38 220.741 1801.4 224.306 1852.61 238.818C1912.72 255.895 1965.79 287.12 2006.07 329.119L2005.77 329.409C1965.54 287.465 1912.54 256.277 1852.5 239.221C1801.34 224.724 1743.37 221.165 1680.23 228.64C1611.32 236.796 1545.82 255.306 1473.47 276.863C1441.61 286.366 1409.61 295.448 1378.65 304.228C1371.95 306.128 1365.28 308.022 1358.63 309.914C1333.34 317.104 1306.94 324.739 1277.92 333.253L1267.82 336.185C1205.57 354.288 1141.2 373.006 1075.62 388.026C1064.83 390.5 1054.02 392.873 1043.5 395.074C1021.71 399.626 995.877 404.516 969.49 406.274C962.679 406.732 956.068 406.959 949.658 406.961Z" fill="url(#paint3_linear_1_4633)"/>
<path d="M943.309 397.424C922.865 397.424 904.425 395.315 887.329 391.042C876.506 388.333 865.693 384.646 855.186 380.089C808.909 360.115 774.281 325.606 740.798 292.234C730.017 281.49 718.869 270.377 707.644 260.103C693.181 246.803 677.314 233.852 660.476 221.608C585.876 167.516 493.812 127.56 394.238 106.06C383.111 103.658 371.714 101.459 360.361 99.5247C248.099 80.4064 131.878 85.4217 33.1042 113.651L32.9766 113.207C92.362 96.2354 158.068 87.6465 225.41 87.6465C270.15 87.6465 315.601 91.4348 360.436 99.0693C371.795 101.004 383.201 103.203 394.331 105.607C443.639 116.253 491.651 131.647 537.035 151.36C582.291 171.018 623.913 194.525 660.743 221.231C677.593 233.484 693.477 246.447 707.951 259.758C719.183 270.038 730.336 281.153 741.12 291.9C774.574 325.243 809.17 359.721 855.366 379.66C865.852 384.208 876.64 387.883 887.436 390.587C936.774 402.912 989.467 395.034 1034.99 386.68C1045.51 384.745 1056.26 382.677 1066.95 380.533C1134.26 367.065 1200.09 350.36 1263.75 334.206L1267.7 333.203C1293.06 326.682 1318.2 320.283 1344.82 313.51L1347.93 312.718C1384.33 303.456 1423.16 293.417 1462.57 281.507C1470.18 279.213 1477.82 276.889 1485.22 274.641C1546.97 255.877 1605.3 238.154 1665.69 228.402C1729.69 218.066 1788.2 219.56 1839.58 232.837C1869.39 240.564 1897.78 252.001 1923.97 266.827C1951.19 282.238 1975.57 301.066 1996.43 322.792L1996.1 323.111C1954.93 280.239 1900.77 249.176 1839.46 233.28C1788.14 220.019 1729.7 218.528 1665.77 228.854C1605.4 238.6 1547.09 256.321 1485.35 275.079C1477.96 277.327 1470.31 279.651 1462.71 281.945C1423.28 293.858 1384.45 303.897 1348.04 313.162L1344.93 313.954C1318.31 320.727 1293.17 327.123 1267.81 333.647L1263.86 334.65C1200.2 350.804 1134.36 367.512 1067.04 380.983C1056.34 383.126 1045.59 385.197 1035.07 387.132C1013.16 391.152 987.257 395.46 961.328 396.899C955.152 397.25 949.148 397.424 943.309 397.424Z" fill="url(#paint4_linear_1_4633)"/>
<path d="M937.333 387.901C916.051 387.901 896.956 385.847 879.328 381.679C868.547 379.123 857.73 375.666 847.174 371.41C801.045 352.922 766.289 321.501 732.679 291.114C721.59 281.089 710.123 270.722 698.59 261.173C684.102 249.101 668.159 237.292 651.208 226.069C577.455 177.437 482.798 139.397 384.665 118.956C373.559 116.642 362.179 114.504 350.844 112.604C301.346 104.299 251.197 100.166 202.251 100.166C140.2 100.166 80.0717 106.802 25.5564 119.998L25.4375 119.507C123.025 95.8902 238.622 93.2621 350.928 112.108C362.269 114.011 373.654 116.148 384.77 118.466C434.035 128.729 482.05 143.194 527.483 161.463C572.82 179.693 614.544 201.292 651.486 225.652C668.455 236.883 684.412 248.703 698.912 260.788C710.454 270.342 721.923 280.712 733.016 290.743C766.594 321.098 801.312 352.489 847.36 370.946C857.892 375.196 868.689 378.642 879.444 381.194C928.019 392.675 980.861 385.937 1026.58 378.717C1037.12 377.046 1047.82 375.28 1058.38 373.47C1128.57 361.481 1195.29 347.19 1257.62 333.58C1286.79 327.21 1312.87 321.443 1337.36 315.95C1371.6 308.269 1411.98 298.769 1451.8 286.58C1470.37 280.904 1488.63 275.065 1506.29 269.417C1555.85 253.571 1602.67 238.603 1651.22 228.61C1715.78 215.325 1774.77 214.745 1826.56 226.887C1856.92 234.038 1885.93 245.179 1912.79 260.01C1940.65 275.389 1965.55 294.398 1986.8 316.504L1986.43 316.855C1944.33 273.052 1889.01 242.113 1826.44 227.38C1774.73 215.256 1715.81 215.836 1651.32 229.106C1602.79 239.093 1555.99 254.058 1506.45 269.899C1488.79 275.546 1470.52 281.385 1451.95 287.062C1412.11 299.259 1371.72 308.759 1337.47 316.443C1312.98 321.937 1286.9 327.706 1257.72 334.076C1195.39 347.686 1128.66 361.977 1058.47 373.969C1047.9 375.779 1037.2 377.545 1026.65 379.216C1003.45 382.88 978.479 386.427 953.171 387.547C947.758 387.779 942.482 387.901 937.333 387.901Z" fill="url(#paint5_linear_1_4633)"/>
<path d="M931.757 378.384C911.348 378.384 891.069 376.713 871.339 372.316C860.609 369.914 849.787 366.688 839.17 362.729C793.267 345.734 758.436 317.412 724.751 290.021C713.296 280.707 701.449 271.073 689.548 262.244C675.056 251.404 659.042 240.735 641.948 230.531C567.984 186.583 473.216 151.537 375.104 131.847C364.017 129.622 352.655 127.545 341.337 125.674C229.078 107.119 114.255 107.354 18.0136 126.333L17.9062 125.796C66.6288 116.189 120.126 111.38 175.624 111.38C229.824 111.38 285.928 115.963 341.424 125.135C352.751 127.006 364.119 129.086 375.211 131.31C424.432 141.187 472.45 154.728 517.93 171.551C563.351 188.355 605.173 208.039 642.229 230.058C659.34 240.271 675.37 250.951 689.876 261.803C701.786 270.641 713.635 280.277 725.096 289.594C758.746 316.956 793.54 345.252 839.359 362.215C849.952 366.166 860.748 369.386 871.455 371.782C919.113 382.404 970.063 377.09 1018.17 370.735C1028.78 369.325 1039.43 367.863 1049.81 366.389C1122.8 356.081 1190.72 344.202 1247.53 333.94C1278.15 328.411 1303.33 323.715 1326.79 319.161C1360.44 312.631 1400.32 304.257 1441.04 291.63C1468.17 283.23 1494.21 274.253 1519.4 265.571C1559.51 251.746 1597.39 238.687 1636.74 228.796C1666.62 221.289 1695.6 216.619 1722.88 214.919C1754.82 212.929 1785.31 214.945 1813.53 220.912C1844.44 227.482 1874.08 238.334 1901.61 253.168C1930.11 268.515 1955.53 287.7 1977.16 310.189L1976.77 310.569C1934.34 266.473 1876.33 234.821 1813.42 221.449C1761.1 210.386 1701.7 213.037 1636.88 229.33C1597.54 239.215 1559.67 252.268 1519.58 266.09C1494.39 274.775 1468.34 283.752 1441.2 292.156C1400.45 304.788 1360.55 313.168 1326.9 319.7C1303.43 324.254 1278.24 328.951 1247.63 334.479C1190.81 344.742 1122.88 356.623 1049.89 366.932C1039.51 368.405 1028.86 369.867 1018.23 371.28C989.988 375.007 960.743 378.381 931.757 378.384Z" fill="url(#paint6_linear_1_4633)"/>
<path d="M926.741 368.899C905.166 368.899 883.994 367.275 863.333 362.95C852.658 360.704 841.833 357.708 831.153 354.045C785.313 338.468 750.294 313.096 716.425 288.562C704.724 280.086 692.628 271.323 680.498 263.309C665.672 253.516 649.582 243.987 632.683 234.986C558.519 195.726 463.641 163.673 365.531 144.735C354.474 142.6 343.132 140.584 331.817 138.742C268.585 128.451 204.767 123.27 144.146 123.27C97.077 123.27 51.9396 126.391 10.4571 132.671L10.3672 132.088C105.332 117.715 219.526 119.87 331.91 138.162C343.231 140.004 354.578 142.02 365.641 144.158C414.819 153.649 462.84 166.264 508.366 181.643C553.875 197.02 595.792 214.792 632.959 234.464C649.875 243.474 665.98 253.011 680.823 262.816C692.962 270.836 705.066 279.605 716.771 288.083C750.604 312.594 785.586 337.937 831.341 353.485C841.998 357.14 852.8 360.13 863.452 362.369C910.008 372.119 959.217 368.116 1009.74 362.755C1020.56 361.601 1031.15 360.441 1041.24 359.309C1104.27 352.293 1168.45 344.11 1237.44 334.3C1268.14 329.934 1293.17 326.146 1316.22 322.375C1347.54 317.25 1388.81 309.699 1430.26 296.684C1463.97 286.117 1495.51 274.227 1526.02 262.726C1558.9 250.331 1589.96 238.621 1622.26 228.991C1652.09 220.094 1681.14 214.218 1708.58 211.526C1740.86 208.358 1771.79 209.507 1800.5 214.946C1864.76 227.187 1924.08 258.772 1967.52 303.88L1967.1 304.289C1923.74 259.268 1864.53 227.746 1800.39 215.526C1747.26 205.466 1687.38 210.189 1622.43 229.559C1590.15 239.187 1559.1 250.891 1526.23 263.283C1495.71 274.787 1464.16 286.682 1430.44 297.252C1388.95 310.279 1347.66 317.835 1316.31 322.961C1293.26 326.732 1268.22 330.523 1237.53 334.889C1168.53 344.701 1104.34 352.881 1041.31 359.901C1031.22 361.032 1020.62 362.193 1009.81 363.347C981.637 366.332 953.871 368.899 926.741 368.899Z" fill="url(#paint7_linear_1_4633)"/>
<path d="M923.412 359.46C897.816 359.46 875.504 357.531 855.345 353.583C844.737 351.495 833.906 348.728 823.156 345.363C777.74 331.301 742.772 309.035 708.959 287.503C696.185 279.367 684.118 271.683 671.468 264.382C656.634 255.819 640.474 247.431 623.436 239.451C549.086 204.875 454.097 175.816 355.976 157.632C344.951 155.587 333.627 153.632 322.317 151.822C248.602 140.01 174.464 133.988 105.808 133.988C69.7091 133.988 35.1389 135.653 2.91828 139.015L2.85156 138.386C96.4011 128.619 209.893 133.167 322.416 151.198C333.731 153.011 345.061 154.966 356.092 157.011C405.236 166.119 453.256 177.803 498.823 191.741C544.421 205.687 586.438 221.548 623.706 238.879C640.761 246.868 656.939 255.265 671.787 263.837C684.449 271.146 696.521 278.833 709.302 286.973C743.083 308.484 778.013 330.726 823.347 344.763C834.08 348.122 844.885 350.883 855.472 352.966C904.311 362.532 955.861 358.413 1001.35 354.781C1010.75 354.021 1021.84 353.125 1032.69 352.238C1111.41 345.853 1171.45 340.435 1227.38 334.668C1258.38 331.469 1282.53 328.673 1305.67 325.598C1336.74 321.467 1377.76 315.025 1419.5 301.749C1458.17 289.476 1493.43 274.83 1527.54 260.666C1554.95 249.281 1580.84 238.528 1607.79 229.194C1672.8 206.673 1733.26 199.871 1787.49 208.985C1853 220.071 1913.52 251.535 1957.9 297.577L1957.45 298.018C1913.16 252.072 1852.76 220.675 1787.39 209.612C1733.26 200.518 1672.9 207.308 1608 229.794C1581.07 239.123 1555.19 249.873 1527.78 261.255C1493.67 275.425 1458.39 290.076 1419.7 302.358C1377.9 315.649 1336.85 322.1 1305.75 326.233C1282.6 329.311 1258.45 332.107 1227.44 335.306C1171.51 341.073 1111.47 346.494 1032.74 352.879C1021.89 353.769 1010.81 354.665 1001.4 355.423C980.387 357.102 954.234 359.191 928.711 359.449C926.927 359.452 925.161 359.46 923.412 359.46Z" fill="url(#paint8_linear_1_4633)"/>
<path d="M921.231 350.084C896.442 350.084 871.653 348.651 847.328 344.219C836.656 342.261 826.124 339.796 815.127 336.68C770.338 324.155 735.559 305.002 701.929 286.478C688.458 279.058 675.733 272.05 662.41 265.451C647.416 258.026 631.634 250.98 614.16 243.908C539.653 214.022 444.555 187.957 346.387 170.518C335.417 168.569 324.11 166.675 312.78 164.888C224.397 150.953 136.016 143.675 57.6633 143.675C36.0533 143.675 15.2178 144.229 -4.65761 145.349L-4.69531 144.673C87.2966 139.493 200.083 146.434 312.888 164.221C324.223 166.008 335.533 167.902 346.509 169.854C395.623 178.579 443.647 189.338 489.243 201.828C534.934 214.347 577.049 228.294 614.415 243.282C631.906 250.359 647.703 257.414 662.711 264.845C676.046 271.45 688.777 278.461 702.256 285.887C735.855 304.393 770.596 323.526 815.313 336.03C826.289 339.14 836.801 341.6 847.452 343.555C894.246 352.086 942.8 349.484 989.756 346.969L992.912 346.801C1002.27 346.293 1012.18 345.771 1024.1 345.156C1041.75 344.263 1059.3 343.41 1076.28 342.58C1124.7 340.222 1170.44 337.991 1217.27 335.024C1248.08 333.072 1272.07 331.154 1295.08 328.805C1340.93 324.123 1375.98 317.336 1408.71 306.795C1451.05 293.185 1488.69 275.923 1525.08 259.229C1548.37 248.546 1570.38 238.455 1593.28 229.379C1658.08 203.708 1719.03 194.835 1774.44 203.003C1807 207.847 1838.5 217.819 1868.06 232.651C1898.46 247.897 1925.43 267.615 1948.24 291.256L1947.76 291.726C1902.53 244.851 1840.94 213.582 1774.34 203.673C1719.05 195.519 1658.22 204.381 1593.53 230.008C1570.64 239.078 1548.65 249.164 1525.36 259.847C1488.95 276.549 1451.3 293.823 1408.92 307.441C1376.14 317.997 1341.05 324.793 1295.14 329.481C1272.13 331.83 1248.13 333.748 1217.31 335.7C1170.48 338.667 1124.74 340.898 1076.31 343.256C1059.33 344.083 1041.78 344.938 1024.13 345.832C1012.21 346.447 1002.3 346.969 992.947 347.477L989.791 347.645C967.183 348.854 944.204 350.084 921.231 350.084Z" fill="url(#paint9_linear_1_4633)"/>
<path d="M923.073 340.772C895.032 340.772 866.866 339.499 839.322 334.852C828.757 333.056 818.222 330.814 807.112 327.998C763.254 317.042 728.876 301.004 695.628 285.494C681.215 278.77 667.602 272.421 653.368 266.521C638.52 260.369 622.667 254.431 604.898 248.366C530.293 223.176 435.084 200.107 336.812 183.405C325.88 181.546 314.59 179.712 303.257 177.955C189.925 160.377 77.8837 151.045 -12.2286 151.68L-12.2344 150.961C77.9185 150.337 189.998 159.66 303.367 177.244C314.703 179.002 325.996 180.835 336.931 182.694C386.034 191.04 434.057 200.87 479.667 211.913C525.466 223.002 567.679 235.037 605.127 247.681C622.911 253.749 638.778 259.693 653.641 265.851C667.889 271.754 681.511 278.109 695.93 284.836C729.148 300.331 763.495 316.354 807.286 327.293C818.379 330.106 828.897 332.346 839.44 334.136C883.829 341.622 929.869 340.337 974.394 339.09C977.776 338.994 981.141 338.901 984.489 338.811C994.342 338.539 1004.49 338.295 1015.52 338.069C1046.66 337.46 1077.13 337.144 1106.6 336.839C1141.07 336.482 1173.63 336.146 1207.18 335.377C1226.15 334.942 1254.81 334.121 1284.5 332.012C1329.48 328.816 1365.53 322.405 1397.92 311.841C1442.96 297.187 1481.95 277.439 1519.66 258.338C1539.85 248.113 1558.92 238.454 1578.78 229.563C1608.14 216.426 1637.37 206.886 1665.66 201.206C1698.8 194.552 1731.01 193.143 1761.4 197.021C1794.51 201.291 1826.63 210.973 1856.87 225.798C1887.9 241.009 1915.39 260.905 1938.59 284.931L1938.07 285.43C1891.91 237.627 1829.13 206.483 1761.3 197.734C1704.7 190.509 1643.4 201.439 1579.08 230.219C1559.23 239.101 1540.16 248.757 1519.98 258.979C1482.25 278.092 1443.23 297.854 1398.14 312.523C1365.69 323.107 1329.59 329.526 1284.55 332.726C1254.85 334.837 1226.18 335.658 1207.19 336.093C1173.64 336.862 1141.08 337.199 1106.6 337.555C1077.13 337.86 1046.66 338.173 1015.53 338.785C1004.51 339.014 994.357 339.255 984.506 339.528C981.159 339.618 977.794 339.711 974.412 339.806C957.463 340.294 940.291 340.772 923.073 340.772Z" fill="url(#paint10_linear_1_4633)"/>
<path d="M1229.24 336.828C1219.2 336.828 1208.56 336.723 1197.11 336.514C1169.64 336.013 1141.8 335.166 1114.88 334.348C1080.06 333.289 1044.06 332.195 1006.97 331.763C996.172 331.65 986.075 331.598 976.1 331.606C976.001 331.606 975.902 331.606 975.801 331.606C969.866 331.606 963.754 331.627 957.84 331.647C916.119 331.792 872.978 331.943 831.344 325.486C820.94 323.859 810.402 321.84 799.127 319.313C756.702 309.973 723.062 297.051 690.528 284.555C674.772 278.504 659.889 272.787 644.356 267.589C629.826 262.727 613.901 257.898 595.668 252.824C521.106 232.351 425.784 212.276 327.263 196.296C316.426 194.538 305.154 192.766 293.76 191.028C179.152 173.546 67.8036 161.822 -19.7734 158.019L-19.7415 157.256C67.8616 161.062 179.239 172.786 293.873 190.274C305.267 192.012 316.542 193.784 327.382 195.545C425.929 211.53 521.28 231.612 595.868 252.09C614.116 257.17 630.055 262.002 644.596 266.866C660.147 272.067 675.036 277.787 690.801 283.841C723.306 296.326 756.919 309.237 799.292 318.565C810.552 321.089 821.076 323.105 831.463 324.729C873.036 331.174 916.146 331.023 957.84 330.878C963.853 330.858 970.072 330.838 976.1 330.838C986.075 330.829 996.178 330.881 1006.98 330.994C1044.07 331.427 1080.08 332.52 1114.9 333.579C1141.82 334.397 1169.66 335.241 1197.12 335.743C1227.02 336.291 1251.43 336.126 1273.95 335.229C1318.72 333.446 1354.69 327.621 1387.17 316.9C1434.14 301.428 1473.74 279.316 1512.04 257.932C1529.89 247.969 1546.75 238.559 1564.32 229.764C1593.41 215.205 1622.7 204.429 1651.37 197.735C1684.76 189.941 1717.4 187.693 1748.39 191.057C1782.05 194.756 1814.79 204.145 1845.71 218.965C1877.37 234.144 1905.38 254.214 1928.98 278.626L1928.43 279.157C1882.01 231.127 1816.35 199.292 1748.3 191.817C1691.08 185.604 1627.58 198.962 1564.66 230.448C1547.11 239.235 1530.26 248.642 1512.42 258.6C1474.09 280.001 1434.45 302.133 1387.41 317.625C1354.86 328.372 1318.82 334.208 1273.98 335.995C1260.07 336.555 1245.44 336.828 1229.24 336.828Z" fill="url(#paint11_linear_1_4633)"/>
<path d="M1256.52 339.288C1235.95 339.288 1213.64 338.525 1186.97 336.918C1163.03 335.477 1138.79 333.722 1115.34 332.022C1077.67 329.295 1038.72 326.476 998.362 324.73C987.861 324.286 977.526 323.932 967.646 323.671C958.428 323.418 948.85 323.233 939.588 323.053C901.244 322.305 861.592 321.533 823.326 316.123C813.157 314.673 802.616 312.877 791.1 310.635C751.001 302.986 718.719 293.173 687.5 283.685C669.675 278.267 652.837 273.15 635.308 268.665C621.274 265.074 605.732 261.46 586.397 257.289C511.368 241.387 418.442 224.755 317.673 209.19C307.024 207.545 296.083 205.88 284.222 204.102C163.748 186.034 56.0059 172.291 -27.3594 164.357L-27.284 163.554C56.0959 171.49 163.856 185.236 284.341 203.305C296.202 205.083 307.143 206.748 317.794 208.392C418.581 223.96 511.519 240.593 586.565 256.5C605.909 260.674 621.463 264.291 635.505 267.882C653.051 272.37 669.895 277.489 687.732 282.911C718.931 292.393 751.192 302.2 791.251 309.84C802.755 312.08 813.281 313.872 823.44 315.323C861.656 320.727 901.282 321.498 939.603 322.244C948.867 322.424 958.445 322.612 967.667 322.862C977.549 323.12 987.89 323.476 998.394 323.92C1038.77 325.666 1077.72 328.489 1115.4 331.215C1138.84 332.912 1163.08 334.667 1187.02 336.109C1216.65 337.893 1240.91 338.635 1263.36 338.447C1307.92 338.07 1343.83 332.831 1376.37 321.957C1424.71 305.84 1464.38 281.483 1502.74 257.927C1518.81 248.065 1533.98 238.751 1549.81 229.965C1578.59 213.979 1607.94 201.962 1637.03 194.24C1670.65 185.317 1703.72 182.24 1735.33 185.088C1752.24 186.634 1769.24 189.715 1785.87 194.249C1802.51 198.785 1818.88 204.801 1834.5 212.128C1866.8 227.27 1895.33 247.522 1919.32 272.317L1918.74 272.877C1871.39 223.928 1804.51 192.224 1735.26 185.892C1661.01 179.2 1593.64 206.547 1550.2 230.669C1534.39 239.45 1519.22 248.758 1503.17 258.615C1464.76 282.194 1425.05 306.574 1376.63 322.719C1344.01 333.623 1308.02 338.876 1263.37 339.253C1261.1 339.279 1258.82 339.288 1256.52 339.288Z" fill="url(#paint12_linear_1_4633)"/>
<path d="M1264.58 342.659C1260.72 342.659 1256.78 342.613 1252.79 342.52C1230.37 342.001 1206.25 340.35 1176.87 337.325C1155.24 335.097 1133.37 332.573 1112.21 330.128C1072.86 325.583 1032.16 320.884 989.775 317.696C979.365 316.924 969.082 316.266 959.217 315.738C946.114 315.024 932.997 314.494 919.112 313.934C884.884 312.55 849.493 311.123 815.335 306.76C805.446 305.484 795.204 303.958 783.099 301.954C747.154 296.15 717.533 289.426 688.886 282.923C667.467 278.061 647.235 273.469 626.289 269.739C611.351 267.079 595.844 264.622 577.158 261.754C508.493 251.474 425.162 239.253 336.936 226.316L308.109 222.087C297.005 220.46 285.866 218.824 274.71 217.179C213.643 208.178 153.065 199.015 94.4829 190.153C48.31 183.169 4.6984 176.57 -34.9219 170.696L-34.7971 169.857C4.82604 175.731 48.4376 182.33 94.6105 189.315C153.192 198.177 213.77 207.343 274.835 216.341C285.988 217.985 297.13 219.618 308.23 221.249L337.057 225.478C425.284 238.415 508.618 250.635 577.282 260.918C595.977 263.79 611.49 266.247 626.437 268.907C647.403 272.64 667.644 277.234 689.071 282.099C717.707 288.599 747.314 295.32 783.236 301.121C795.332 303.123 805.562 304.649 815.442 305.922C849.563 310.279 884.936 311.706 919.147 313.09C933.035 313.649 946.152 314.18 959.26 314.897C969.131 315.425 979.417 316.083 989.836 316.858C1032.24 320.048 1072.94 324.747 1112.31 329.293C1133.46 331.735 1155.33 334.262 1176.95 336.486C1206.31 339.509 1230.41 341.157 1252.8 341.676C1297.17 342.706 1333.01 338.047 1365.6 327.024C1414.86 310.398 1454.2 283.903 1492.26 258.281C1506.94 248.39 1520.82 239.047 1535.32 230.174C1563.76 212.764 1593.16 199.494 1622.71 190.734C1656.54 180.7 1690.05 176.796 1722.3 179.128C1792.96 184.329 1861.26 215.995 1909.68 266.015L1909.07 266.606C1860.79 216.738 1792.7 185.161 1722.24 179.978C1645.9 174.455 1578.69 204.622 1535.76 230.902C1521.28 239.764 1507.41 249.101 1492.73 258.989C1454.63 284.643 1415.24 311.167 1365.88 327.831C1336.14 337.888 1303.69 342.659 1264.58 342.659Z" fill="url(#paint13_linear_1_4633)"/>
<path d="M1265.99 346.458C1258.33 346.458 1250.42 346.232 1242.22 345.78C1219.85 344.55 1195.87 341.991 1166.77 337.73C1146.82 334.806 1126.64 331.59 1107.13 328.477C1066.72 322.032 1024.92 315.366 981.204 310.661C970.895 309.565 960.668 308.602 950.805 307.801C932.827 306.325 914.675 305.266 895.455 304.146C866.404 302.452 836.365 300.7 807.361 297.394C795.924 296.077 785.107 294.632 775.12 293.272C747.985 289.678 724.538 286.017 701.867 282.478C672.767 277.936 645.28 273.646 617.295 270.806C605.709 269.631 593.924 268.564 581.445 267.435C576.999 267.032 572.5 266.626 567.94 266.208C489.778 259.337 394.111 248.245 298.566 234.974C287.079 233.379 275.86 231.789 265.22 230.249C163.406 215.508 54.1352 196.607 -42.4688 177.027L-42.2918 176.154C54.2947 195.731 163.551 214.629 265.348 229.367C275.984 230.907 287.201 232.497 298.688 234.092C394.222 247.36 489.871 258.452 568.018 265.321C572.578 265.739 577.077 266.145 581.524 266.548C594.005 267.676 605.797 268.744 617.385 269.918C645.394 272.761 672.892 277.054 702.003 281.597C724.672 285.135 748.112 288.796 775.239 292.387C785.223 293.747 796.034 295.189 807.463 296.509C836.44 299.81 866.468 301.562 895.507 303.256C914.732 304.378 932.891 305.437 950.878 306.914C960.749 307.714 970.982 308.677 981.3 309.774C1025.04 314.479 1066.85 321.147 1107.27 327.595C1126.78 330.708 1146.95 333.925 1166.9 336.846C1195.98 341.104 1219.92 343.659 1242.27 344.886C1286.46 347.314 1322.23 343.244 1354.85 332.074C1404.71 315.038 1443.44 286.51 1480.9 258.919C1493.92 249.327 1507.39 239.406 1520.85 230.374C1548.92 211.539 1578.37 197.01 1608.39 187.197C1642.44 176.067 1676.39 171.345 1709.3 173.158C1726.75 174.141 1744.37 176.798 1761.66 181.053C1778.92 185.3 1795.91 191.156 1812.16 198.457C1828.58 205.831 1844.31 214.71 1858.92 224.848C1873.84 235.197 1887.68 246.925 1900.06 259.702L1899.42 260.323C1850.21 209.532 1780.9 178.086 1709.24 174.048C1630.68 169.721 1563.71 202.69 1521.35 231.116C1507.9 240.14 1494.44 250.052 1481.43 259.641C1443.92 287.27 1405.13 315.842 1355.14 332.921C1328.47 342.052 1299.7 346.458 1265.99 346.458Z" fill="url(#paint14_linear_1_4633)"/>
<path d="M1264.16 350.532C1253.85 350.532 1243.07 350.036 1231.61 349.038C1209.28 347.097 1185.46 343.631 1156.64 338.134C1137.96 334.569 1119.08 330.712 1100.82 326.978C1059.73 318.578 1017.24 309.891 972.595 303.628C962.379 302.207 952.204 300.942 942.353 299.869C918.005 297.191 892.02 295.323 866.892 293.516C844.629 291.915 821.61 290.262 799.35 288.031C791.312 287.216 783.414 286.357 775.773 285.531C772.858 285.214 769.969 284.901 767.103 284.594L762.387 284.106C700.817 277.728 656.329 273.119 608.262 271.877C602.029 271.715 595.83 271.578 589.269 271.433C579.386 271.216 569.164 270.99 558.684 270.671C481.274 268.617 385.491 260.521 288.98 247.871C277.716 246.395 266.514 244.866 255.686 243.326C149.921 228.289 41.3377 206.995 -50.0625 183.363L-49.8275 182.458C41.5407 206.081 150.087 227.369 255.816 242.401C266.639 243.938 277.838 245.467 289.099 246.943C385.578 259.59 481.326 267.683 558.707 269.737C569.184 270.053 579.403 270.279 589.286 270.499C595.85 270.644 602.049 270.781 608.285 270.943C656.39 272.188 700.889 276.797 762.482 283.178L767.199 283.666C770.068 283.973 772.957 284.286 775.872 284.602C783.509 285.432 791.405 286.288 799.44 287.103C821.685 289.331 844.699 290.987 866.953 292.585C892.09 294.392 918.083 296.26 942.449 298.94C952.308 300.014 962.492 301.281 972.717 302.703C1017.39 308.968 1059.89 317.658 1101 326.062C1119.25 329.795 1138.13 333.653 1156.81 337.215C1185.6 342.709 1209.39 346.169 1231.68 348.107C1275.7 351.936 1311.41 348.446 1344.06 337.131C1394.27 319.767 1432.17 289.29 1468.83 259.819C1481.05 250 1493.68 239.845 1506.33 230.577C1534 210.319 1563.5 194.528 1594.01 183.647C1628.26 171.433 1662.66 165.898 1696.24 167.189C1713.97 167.891 1731.9 170.336 1749.51 174.452C1767.07 178.557 1784.38 184.332 1800.95 191.619C1817.67 198.972 1833.69 207.888 1848.57 218.119C1863.76 228.561 1877.83 240.428 1890.4 253.391L1889.73 254.041C1839.59 202.328 1769.05 171.012 1696.2 168.123C1633.09 165.687 1565.87 188.141 1506.88 231.332C1494.25 240.588 1481.62 250.734 1469.42 260.547C1432.69 290.07 1394.72 320.597 1344.36 338.015C1326.61 344.168 1308.08 347.959 1287.71 349.607C1280.1 350.224 1272.28 350.532 1264.16 350.532Z" fill="url(#paint15_linear_1_4633)"/>
<path d="M1260.42 354.791C1248.04 354.791 1235.02 353.965 1221.02 352.297C1198.75 349.643 1175.08 345.269 1146.53 338.536C1128.86 334.368 1111.01 329.901 1093.76 325.582C1052.24 315.191 1009.31 304.447 964.014 296.592C953.876 294.846 943.753 293.28 933.931 291.934C900.724 287.354 864.944 284.543 830.342 281.828C817.515 280.821 804.254 279.78 791.372 278.666L785.849 278.182C776.575 277.364 767.815 276.595 759.119 275.911C697.256 271.281 650.944 270.42 599.269 272.937C596.847 273.056 594.41 273.175 591.959 273.297C578.294 273.973 564.162 274.672 549.464 275.124C536.055 275.586 522.073 275.815 507.639 275.815C438.83 275.815 359.441 270.62 279.429 260.76C268.256 259.383 257.074 257.915 246.188 256.395C192.583 248.914 138.573 239.2 85.6557 227.527C33.9628 216.122 -14.2406 203.391 -57.6172 189.691L-57.3213 188.76C31.5291 216.827 139.367 240.502 246.324 255.429C257.204 256.946 268.383 258.414 279.551 259.792C376.297 271.713 472.144 276.813 549.432 274.15C564.121 273.697 578.248 272.998 591.91 272.322C594.361 272.201 596.795 272.082 599.22 271.963C650.939 269.439 697.288 270.301 759.195 274.936C767.897 275.62 776.657 276.392 785.933 277.207L791.456 277.692C804.335 278.805 817.597 279.844 830.42 280.85C865.037 283.568 900.831 286.376 934.067 290.962C943.901 292.308 954.036 293.877 964.185 295.626C1009.51 303.484 1052.46 314.234 1094 324.63C1111.25 328.949 1129.1 333.416 1146.76 337.582C1175.27 344.308 1198.91 348.674 1221.15 351.325C1265 356.549 1300.64 353.646 1333.3 342.188C1383.68 324.555 1420.61 292.215 1456.33 260.937C1467.9 250.814 1479.85 240.345 1491.87 230.782C1519.1 209.099 1548.64 192.043 1579.66 180.081C1614.11 166.799 1648.95 160.449 1683.23 161.221C1701.24 161.644 1719.47 163.875 1737.42 167.852C1755.29 171.811 1772.91 177.505 1789.8 184.78C1806.82 192.113 1823.13 201.067 1838.28 211.394C1853.73 221.929 1868.03 233.935 1880.79 247.084L1880.09 247.765C1829.02 195.13 1757.25 163.942 1683.21 162.201C1618.22 160.742 1550.49 185.375 1492.48 231.551C1480.48 241.1 1468.53 251.562 1456.98 261.677C1421.19 293.013 1384.19 325.419 1333.63 343.113C1315.91 349.329 1297.41 352.978 1277.07 354.275C1271.62 354.617 1266.09 354.791 1260.42 354.791Z" fill="url(#paint16_linear_1_4633)"/>
<path d="M1255.35 359.188C1241.3 359.188 1226.49 357.988 1210.42 355.551C1188.18 352.18 1164.66 346.901 1136.4 338.933C1119.56 334.188 1102.57 329.137 1086.13 324.256C1044.36 311.847 1001.17 299.017 955.407 289.552C945.353 287.484 935.285 285.613 925.481 283.994C878.693 276.218 825.834 272.383 783.365 269.3C773.752 268.589 762.402 267.788 751.107 267.226C687.573 264.281 640.852 267.803 590.244 273.996C575.071 275.852 557.873 277.958 540.219 279.574C462.786 286.936 366.768 284.83 269.851 273.648C258.724 272.363 247.556 270.956 236.661 269.465C182.975 262.115 129.177 251.893 76.7557 239.083C25.2079 226.489 -22.5546 211.997 -65.2031 196.014L-64.8463 195.06C22.1709 227.669 129.298 253.735 236.8 268.455C247.689 269.946 258.848 271.353 269.969 272.635C366.817 283.809 462.76 285.915 540.123 278.558C557.765 276.943 574.955 274.84 590.119 272.983C640.777 266.782 687.55 263.257 751.156 266.205C762.463 266.77 773.819 267.571 783.438 268.281C825.93 271.365 878.812 275.202 925.646 282.988C935.462 284.609 945.545 286.483 955.61 288.554C1001.41 298.028 1044.63 310.863 1086.42 323.278C1102.85 328.16 1119.85 333.207 1136.68 337.953C1164.9 345.909 1188.38 351.18 1210.57 354.544C1253.66 361.074 1290.27 358.687 1322.51 347.243C1372.91 329.39 1408.76 295.258 1443.43 262.251C1454.45 251.756 1465.85 240.905 1477.35 230.987C1503.76 208.211 1534.15 189.372 1565.25 176.501C1599.34 162.392 1634.06 155.245 1668.48 155.245C1669.04 155.245 1669.61 155.248 1670.18 155.251C1706.61 155.538 1744.1 163.382 1778.59 177.94C1795.92 185.253 1812.52 194.245 1827.94 204.664C1843.66 215.292 1858.19 227.437 1871.14 240.769L1870.41 241.479C1819.16 188.707 1744.31 156.852 1670.17 156.272C1669.61 156.269 1669.05 156.266 1668.49 156.266C1602.1 156.266 1534.53 183.036 1478.02 231.762C1466.55 241.662 1455.15 252.505 1444.14 262.991C1409.39 296.073 1373.47 330.28 1322.86 348.207C1305.17 354.486 1286.69 357.996 1266.39 358.939C1262.75 359.104 1259.08 359.188 1255.35 359.188Z" fill="url(#paint17_linear_1_4633)"/>
<path d="M1249.36 363.697C1233.9 363.697 1217.63 362.09 1199.82 358.813C1177.63 354.726 1154.26 348.539 1126.28 339.338C1110.15 334.035 1093.87 328.422 1078.14 322.998C1036.23 308.553 992.899 293.614 946.808 282.522C936.832 280.132 926.816 277.959 917.041 276.065C877.891 268.439 832.872 263.317 775.369 259.943C762.931 259.198 752.68 258.757 743.108 258.551C677.823 257.376 629.286 265.692 581.236 275.065C565.546 278.125 548.74 281.339 530.988 284.036C489.256 290.516 442.146 293.768 392.44 293.768C349.728 293.768 305.101 291.369 260.285 286.551C249.193 285.359 238.043 284.013 227.145 282.548C173.448 275.337 119.855 264.605 67.8636 250.652C16.5246 236.874 -30.7969 220.625 -72.7812 202.35L-72.3578 201.376C13.1018 238.568 119.516 267.021 227.287 281.492C238.177 282.954 249.315 284.3 260.399 285.492C357.281 295.909 453.319 295.018 530.825 282.986C548.56 280.292 565.352 277.081 581.033 274.02C629.141 264.637 677.733 256.312 743.131 257.486C752.718 257.692 762.981 258.136 775.433 258.882C832.982 262.258 878.044 267.386 917.244 275.021C927.037 276.918 937.067 279.094 947.057 281.49C993.198 292.596 1036.55 307.54 1078.48 321.995C1094.22 327.419 1110.49 333.029 1126.61 338.328C1154.55 347.515 1177.87 353.69 1200.02 357.768C1242.95 365.676 1279.49 363.886 1311.74 352.307C1362.06 334.267 1396.75 298.415 1430.29 263.74C1440.86 252.816 1451.79 241.518 1462.86 231.204C1488.81 207.029 1519.23 186.875 1550.84 172.92C1585.69 157.535 1621.45 149.584 1657.14 149.289C1694.14 149.013 1732.25 156.563 1767.41 171.107C1785.04 178.4 1801.93 187.429 1817.61 197.944C1833.6 208.662 1848.37 220.95 1861.5 234.467L1860.73 235.206C1809.02 181.985 1733.76 150.347 1659.08 150.347C1658.43 150.347 1657.8 150.35 1657.15 150.353C1589.21 150.916 1518.66 180.668 1463.59 231.981C1452.53 242.278 1441.61 253.565 1431.05 264.48C1397.43 299.242 1362.65 335.187 1312.1 353.307C1294.68 359.564 1275.71 363.03 1255.71 363.61C1253.61 363.666 1251.49 363.697 1249.36 363.697Z" fill="url(#paint18_linear_1_4633)"/>
<path d="M1242.74 368.257C1226.01 368.257 1208.23 366.192 1189.22 362.067C1167.06 357.26 1143.84 350.162 1116.15 339.735C1100.63 333.89 1084.98 327.734 1069.84 321.779C1027.9 305.28 984.524 288.219 938.201 275.482C928.292 272.767 918.328 270.292 908.59 268.123C866.917 258.809 819.404 252.906 767.368 250.574C755.458 250.025 744.906 249.793 735.104 249.863C673.004 250.495 626.526 261.625 572.22 276.114C556.417 280.332 539.364 284.746 521.748 288.48C471.961 299.186 414.598 304.633 354.324 304.633C320.43 304.633 285.625 302.91 250.713 299.433C239.646 298.33 228.514 297.045 217.625 295.609C163.948 288.543 110.567 277.303 58.9637 262.2C7.86543 247.244 -39.0123 229.231 -80.3672 208.665L-79.8741 207.673C4.16417 249.469 109.868 280.308 217.77 294.513C228.647 295.946 239.768 297.228 250.823 298.33C347.711 307.984 443.845 304.097 521.519 287.395C539.112 283.665 556.147 279.253 571.939 275.041C597.224 268.294 622.094 261.846 648.377 257.065C677.517 251.769 705.883 249.048 735.099 248.752C744.92 248.685 755.493 248.917 767.424 249.466C819.523 251.798 867.102 257.712 908.837 267.041C918.592 269.213 928.57 271.693 938.499 274.411C984.881 287.163 1028.28 304.236 1070.25 320.747C1085.39 326.699 1101.03 332.854 1116.55 338.696C1144.19 349.107 1167.36 356.19 1189.46 360.985C1232.23 370.264 1268.71 369.078 1300.96 357.356C1351.11 339.163 1384.58 301.649 1416.94 265.367C1427.12 253.962 1437.64 242.168 1448.36 231.403C1473.82 205.837 1504.27 184.366 1536.4 169.314C1571.45 152.894 1607.69 144.145 1644.1 143.313C1681.63 142.486 1720.4 149.729 1756.22 164.258C1774.16 171.53 1791.33 180.598 1807.29 191.206C1823.54 202.016 1838.54 214.446 1851.86 228.143L1851.06 228.914C1797.98 174.318 1720.62 142.721 1644.13 144.415C1574.17 146.016 1503.1 178.005 1449.15 232.181C1438.45 242.922 1427.94 254.704 1417.77 266.101C1385.32 302.484 1351.76 340.106 1301.34 358.392C1283.23 364.973 1263.82 368.257 1242.74 368.257Z" fill="url(#paint19_linear_1_4633)"/>
<path d="M1235.51 372.927C1217.8 372.927 1198.92 370.392 1178.64 365.322C1156.83 359.871 1133.08 351.63 1106.04 340.129C1091.06 333.757 1075.96 327.068 1061.35 320.596C1019.44 302.029 976.098 282.829 929.62 268.439C919.787 265.405 909.878 262.626 900.17 260.184C856.984 249.28 808.305 242.719 759.394 241.208C747.699 240.834 737.146 240.825 727.127 241.179C662.538 243.641 614.3 259.926 563.233 277.167C547.555 282.461 530.56 288.033 512.538 292.93C456.782 308.231 391.612 316.115 323.551 316.118C296.409 316.118 268.821 314.864 241.166 312.329C230.135 311.317 219.019 310.093 208.127 308.689C154.488 301.771 101.319 290.02 50.0901 273.765C-0.750008 257.631 -47.184 237.86 -87.9297 214.994L-87.367 213.991C-4.67461 260.399 100.321 293.626 208.272 307.549C219.15 308.953 230.251 310.174 241.268 311.186C268.879 313.719 296.456 314.969 323.554 314.969C391.522 314.969 456.564 307.099 512.234 291.822C530.23 286.934 547.201 281.368 562.865 276.08C614.016 258.812 662.326 242.501 727.084 240.033C737.129 239.679 747.71 239.688 759.429 240.062C808.418 241.573 857.185 248.149 900.448 259.073C910.177 261.521 920.106 264.306 929.957 267.346C976.501 281.756 1019.87 300.967 1061.82 319.549C1076.42 326.018 1091.52 332.707 1106.49 339.076C1133.47 350.551 1157.16 358.775 1178.92 364.211C1221.54 374.865 1257.94 374.279 1290.19 362.418C1340.11 344.095 1372.32 304.976 1403.47 267.143C1413.3 255.209 1423.46 242.87 1433.88 231.618C1458.84 204.662 1489.3 181.872 1521.96 165.712C1539.04 157.265 1556.76 150.579 1574.65 145.842C1593.31 140.903 1612.29 138.045 1631.08 137.349C1709.07 134.518 1788 166.104 1842.23 221.84L1841.4 222.641C1787.4 167.133 1708.78 135.676 1631.12 138.498C1559.09 141.166 1487.51 175.394 1434.72 232.398C1424.32 243.624 1414.17 255.952 1404.36 267.871C1373.11 305.82 1340.8 345.063 1290.59 363.494C1273.48 369.783 1255.22 372.927 1235.51 372.927Z" fill="url(#paint20_linear_1_4633)"/>
<path d="M1227.77 377.652C1209.22 377.652 1189.39 374.626 1168.02 368.576C1146.25 362.412 1122.66 353.234 1095.9 340.523C1081.41 333.637 1066.8 326.426 1052.67 319.453C1010.84 298.806 967.58 277.454 921.004 261.399C911.241 258.043 901.384 254.962 891.713 252.244C847.176 239.696 798.654 232.641 751.391 231.844C739.84 231.638 729.284 231.85 719.12 232.493C656.15 236.647 608.605 256.035 558.267 276.563L554.214 278.217C539.317 284.288 521.617 291.31 503.299 297.373C442.939 317.501 371.667 327.986 297.694 327.986C275.82 327.986 253.725 327.07 231.59 325.216C220.579 324.294 209.481 323.131 198.604 321.756C145.02 314.989 92.0563 302.727 41.1872 285.318C-9.3802 268.009 -55.3732 246.475 -95.5156 221.308L-94.8833 220.299C-14.6623 270.588 92.3638 307.136 198.755 320.575C209.618 321.947 220.698 323.11 231.692 324.03C253.786 325.881 275.872 326.797 297.702 326.797C371.556 326.797 442.675 316.334 502.928 296.242C521.214 290.191 538.89 283.177 553.771 277.112L557.823 275.458C608.251 254.892 655.886 235.47 719.051 231.301C729.25 230.654 739.837 230.443 751.419 230.649C798.785 231.449 847.411 238.518 892.044 251.095C901.738 253.819 911.618 256.908 921.402 260.27C968.05 276.349 1011.34 297.718 1053.21 318.382C1067.33 325.353 1081.93 332.564 1096.42 339.444C1123.12 352.126 1146.65 361.277 1168.36 367.427C1210.83 379.453 1247.15 379.468 1279.41 367.467C1329.05 349.031 1359.97 308.363 1389.88 269.033C1399.39 256.531 1409.22 243.6 1419.37 231.823C1443.82 203.484 1474.29 179.371 1507.48 162.097C1524.67 153.149 1542.6 146.007 1560.78 140.873C1579.66 135.539 1598.93 132.342 1618.03 131.373C1656.64 129.436 1696.68 136.078 1733.85 150.579C1771.3 165.189 1805.44 187.646 1832.58 215.522L1831.72 216.354C1776.79 159.933 1696.93 128.615 1618.09 132.565C1545.06 136.275 1471.11 173.674 1420.27 232.604C1410.14 244.351 1400.32 257.265 1390.82 269.755C1360.81 309.222 1329.78 350.032 1279.82 368.587C1263.57 374.632 1246.31 377.652 1227.77 377.652Z" fill="url(#paint21_linear_1_4633)"/>
<path d="M1219.66 382.427C1200.38 382.427 1179.73 378.897 1157.42 371.831C1135.68 364.95 1112.25 354.839 1085.77 340.918C1071.71 333.527 1057.55 325.806 1043.85 318.337C1002.15 295.598 959.024 272.085 912.396 254.359C902.707 250.684 892.906 247.299 883.261 244.306C837.816 230.159 789.448 222.612 743.391 222.478C732.107 222.432 721.25 222.884 711.118 223.81C648.707 229.651 601.267 252.39 551.041 276.465C549.095 277.397 547.149 278.331 545.199 279.265C529.136 286.885 511.821 294.89 494.061 301.817C430.028 326.925 353.865 340.126 275.289 340.129C257.612 340.129 239.828 339.462 222.012 338.11C211.019 337.278 199.938 336.173 189.075 334.83C135.549 328.213 82.7976 315.442 32.2795 296.875C-18.0095 278.391 -63.5587 255.093 -103.109 227.627L-102.405 226.612C-23.4279 281.457 82.8701 320.454 189.229 333.603C200.072 334.943 211.135 336.045 222.108 336.878C318.921 344.216 415.345 331.358 493.611 300.666C511.337 293.753 528.625 285.759 544.669 278.148C546.618 277.217 548.564 276.283 550.508 275.349C575.851 263.201 599.787 251.728 625.87 242.243C655.425 231.496 682.477 225.248 711.005 222.577C721.177 221.649 732.069 221.202 743.397 221.24C789.575 221.373 838.069 228.941 883.63 243.122C893.297 246.124 903.122 249.515 912.836 253.202C959.543 270.96 1002.71 294.493 1044.45 317.252C1058.14 324.718 1072.3 332.437 1086.35 339.822C1112.76 353.707 1136.12 363.79 1157.79 370.65C1200.11 384.048 1236.37 384.663 1268.62 372.524C1317.94 353.992 1347.56 311.825 1376.2 271.044C1385.41 257.933 1394.94 244.372 1404.87 232.036C1428.78 202.316 1459.25 176.882 1492.97 158.486C1510.29 149.039 1528.43 141.445 1546.9 135.913C1566.02 130.187 1585.56 126.654 1604.99 125.407C1644.13 122.918 1684.82 129.256 1722.66 143.742C1760.73 158.315 1795.4 180.955 1822.93 209.213L1822.05 210.075C1766.19 152.743 1685.08 121.552 1605.06 126.64C1529.93 131.461 1455.45 171.151 1405.83 232.81C1395.93 245.115 1386.41 258.658 1377.21 271.755C1348.46 312.689 1318.73 355.016 1269.06 373.681C1253.57 379.509 1237.18 382.427 1219.66 382.427Z" fill="url(#paint22_linear_1_4633)"/>
<path d="M1211.24 387.236C1191.33 387.236 1169.97 383.19 1146.82 375.082C1125.12 367.48 1102.5 356.75 1075.65 341.31C1062.53 333.702 1049.31 325.788 1036.53 318.137C994.486 292.979 951.016 266.963 903.802 247.317C894.186 243.322 884.437 239.636 874.827 236.364C828.75 220.651 780.535 212.604 735.409 213.112C724.207 213.228 713.347 213.907 703.133 215.122C641.549 222.58 594.402 248.416 544.484 275.772C541.726 277.283 538.964 278.798 536.197 280.309C520.168 289.011 502.851 298.177 484.838 306.255C417.797 336.448 337.634 352.451 255.383 352.451C241.115 352.451 226.791 351.97 212.453 350.998C201.48 350.253 190.414 349.211 179.565 347.9C126.106 341.435 73.5602 328.155 23.3873 308.428C-26.6174 288.767 -71.7257 263.708 -110.688 233.942L-109.91 232.926C-32.1518 292.332 73.4152 333.774 179.719 346.63C190.544 347.938 201.587 348.979 212.54 349.722C309.315 356.286 405.832 340.434 484.313 305.089C502.288 297.025 519.576 287.874 535.582 279.186C538.346 277.675 541.108 276.161 543.866 274.65C567.898 261.481 592.748 247.862 618.646 236.967C647.623 224.776 675.209 217.213 702.977 213.852C713.237 212.627 724.143 211.949 735.389 211.833C780.666 211.337 829.02 219.392 875.233 235.154C884.869 238.435 894.645 242.13 904.286 246.136C951.585 265.817 995.098 291.856 1037.17 317.04C1049.96 324.689 1063.18 332.602 1076.29 340.205C1103.07 355.602 1125.61 366.302 1147.24 373.876C1189.41 388.646 1225.59 389.861 1257.85 377.583C1306.81 358.969 1335.11 315.349 1362.49 273.167C1371.42 259.41 1380.65 245.185 1390.37 232.253C1438.98 167.6 1514.34 125.428 1591.95 119.443C1631.63 116.404 1672.96 122.44 1711.47 136.905C1750.16 151.444 1785.37 174.263 1813.29 202.907L1812.37 203.801C1755.6 145.555 1673.23 114.498 1592.04 120.72C1514.79 126.678 1439.78 168.659 1391.39 233.025C1381.69 245.921 1372.47 260.129 1363.56 273.866C1336.07 316.222 1307.65 360.019 1258.3 378.781C1243.5 384.414 1227.87 387.236 1211.24 387.236Z" fill="url(#paint23_linear_1_4633)"/>
<path d="M1202.45 392.034C1198.89 392.034 1195.3 391.897 1191.67 391.622C1174.43 390.316 1155.78 385.846 1136.22 378.334C1114.78 370.096 1091.65 358.113 1065.53 341.701C1052.64 333.553 1039.65 325.083 1027.09 316.895C985.379 289.689 942.243 261.558 895.2 240.276C885.651 235.96 875.954 231.975 866.382 228.427C819.861 211.165 771.811 202.637 727.419 203.751C716.287 204.027 705.429 204.932 695.144 206.443C634.128 215.496 587.108 244.462 537.324 275.128C533.95 277.205 530.574 279.284 527.189 281.361C511.154 291.151 493.811 301.48 475.612 310.705C406.057 346.058 322.547 364.924 237.313 364.927C225.858 364.927 214.378 364.587 202.891 363.9C191.932 363.244 180.884 362.264 170.052 360.982C116.663 354.67 64.3259 340.877 14.4923 319.993C-10.0126 309.721 -33.6704 297.776 -55.8287 284.491C-78.1754 271.09 -99.1821 256.213 -118.266 240.268L-117.419 239.252C-40.8612 303.218 63.972 347.111 170.206 359.671C181.011 360.947 192.034 361.928 202.966 362.583C299.698 368.37 396.311 349.53 475.009 309.53C493.167 300.326 510.484 290.011 526.493 280.239C529.875 278.165 533.251 276.085 536.625 274.008C560.558 259.264 585.304 244.021 611.105 231.708C640.005 217.915 667.428 209.225 694.943 205.143C705.281 203.623 716.194 202.715 727.379 202.44C771.936 201.317 820.157 209.877 866.834 227.197C876.436 230.756 886.159 234.753 895.737 239.081C942.873 260.407 986.049 288.567 1027.81 315.798C1040.36 323.987 1053.34 332.451 1066.22 340.596C1092.27 356.962 1115.32 368.907 1136.69 377.113C1178.71 393.255 1214.82 395.068 1247.07 382.653C1295.65 363.967 1322.64 318.942 1348.74 275.403C1357.39 260.967 1366.34 246.04 1375.88 232.479C1398.7 200.021 1429.15 171.939 1463.93 151.278C1481.5 140.838 1500.07 132.336 1519.14 126.004C1538.72 119.501 1558.83 115.289 1578.91 113.488C1619.14 109.894 1661.11 115.632 1700.28 130.08C1739.6 144.58 1775.34 167.585 1803.65 196.61L1802.7 197.532C1745 138.373 1661.39 107.446 1579.03 114.805C1499.64 121.926 1424.1 166.202 1376.96 233.242C1367.45 246.762 1358.52 261.669 1349.87 276.085C1323.66 319.818 1296.55 365.04 1247.54 383.889C1233.46 389.298 1218.33 392.031 1202.45 392.034Z" fill="url(#paint24_linear_1_4633)"/>
<path d="M1193.53 396.902C1189.39 396.902 1185.21 396.705 1180.98 396.314C1163.69 394.707 1145.06 389.752 1125.61 381.587C1104.28 372.702 1081.31 359.783 1055.4 342.091C1042.72 333.401 1029.95 324.374 1017.6 315.646C976.229 286.399 933.444 256.153 886.592 233.232C877.113 228.597 867.471 224.307 857.933 220.484C811.105 201.687 763.209 192.66 719.426 194.383C708.352 194.816 697.492 195.947 687.148 197.754C626.527 208.394 577.331 242.004 529.751 274.509C525.899 277.142 522.042 279.776 518.175 282.401C502.102 293.288 484.707 304.789 466.38 315.138C394.679 355.704 308.329 377.488 220.636 377.491C211.539 377.491 202.437 377.256 193.326 376.786C182.384 376.221 171.353 375.298 160.54 374.051C134.001 370.985 107.315 365.79 81.2294 358.611C55.4163 351.507 29.9687 342.399 5.59727 331.545C-18.7539 320.699 -42.2232 308.02 -64.1581 293.865C-86.2931 279.579 -107.045 263.672 -125.844 246.578L-124.927 245.569C-49.5619 314.097 54.5432 360.435 160.693 372.696C171.481 373.944 182.483 374.86 193.395 375.426C290.083 380.435 386.792 358.605 465.708 313.955C483.993 303.628 501.363 292.145 517.409 281.276C521.273 278.651 525.131 276.017 528.983 273.386C552.881 257.058 577.592 240.176 603.356 226.436C632.235 211.033 659.568 201.212 686.913 196.414C697.315 194.598 708.236 193.458 719.371 193.026C763.343 191.297 811.433 200.356 858.438 219.222C868.005 223.059 877.678 227.361 887.19 232.011C934.14 254.981 976.968 285.259 1018.39 314.538C1030.73 323.263 1043.5 332.287 1056.16 340.972C1082 358.608 1104.89 371.484 1126.14 380.334C1167.93 397.883 1203.96 400.293 1236.29 387.704C1284.48 368.954 1310.15 322.573 1334.97 277.72C1343.35 262.572 1352.02 246.909 1361.38 232.69C1383.64 198.871 1414.07 169.47 1449.38 147.662C1485.25 125.51 1525.53 111.624 1565.87 107.514C1606.64 103.369 1649.25 108.805 1689.09 123.233C1729.03 137.696 1765.31 160.884 1794.01 190.291L1793.03 191.245C1735.28 132.068 1648.29 100.503 1566 108.872C1484.47 117.182 1408.39 163.749 1362.51 233.441C1353.18 247.617 1344.53 263.257 1336.16 278.381C1323.74 300.809 1310.91 324.003 1295.31 343.588C1277.75 365.639 1258.6 380.488 1236.78 388.978C1223.24 394.248 1208.73 396.902 1193.53 396.902Z" fill="url(#paint25_linear_1_4633)"/>
<path d="M1184.51 401.768C1179.83 401.768 1175.09 401.504 1170.28 400.97C1152.99 399.056 1134.39 393.629 1114.99 384.831C1093.55 375.152 1070.74 361.295 1045.25 342.476C1032.77 333.24 1020.2 323.656 1008.05 314.385C967.029 283.096 924.612 250.742 877.967 226.182C868.557 221.23 858.967 216.639 849.465 212.534C802.424 192.218 754.691 182.698 711.416 185.013C700.393 185.599 689.533 186.962 679.137 189.062C618.786 201.282 569.518 238.211 521.871 273.924C517.703 277.048 513.393 280.276 509.143 283.441C493.013 295.432 475.551 308.108 457.131 319.572C383.568 365.397 294.778 390.136 205.022 390.136C197.93 390.136 190.841 389.983 183.74 389.672C172.81 389.194 161.794 388.335 151 387.117C124.506 384.129 97.8978 378.844 71.9164 371.407C46.1991 364.045 20.8849 354.519 -3.32408 343.09C-27.5244 331.668 -50.8023 318.255 -72.5138 303.229C-94.4342 288.059 -114.933 271.122 -133.445 252.883L-132.456 251.879C-58.2686 324.973 45.1055 373.753 151.16 385.716C161.921 386.928 172.903 387.787 183.801 388.266C280.44 392.495 377.247 367.674 456.386 318.377C474.762 306.939 492.198 294.284 508.302 282.31C512.552 279.148 516.859 275.917 521.027 272.796C544.938 254.875 569.66 236.346 595.432 221.169C624.341 204.148 651.63 193.195 678.859 187.681C689.321 185.57 700.248 184.197 711.34 183.606C733.954 182.396 757.708 184.345 781.94 189.398C804.406 194.083 827.312 201.433 850.021 211.24C859.556 215.357 869.177 219.963 878.619 224.935C925.366 249.547 967.829 281.939 1008.9 313.263C1021.05 322.531 1033.61 332.111 1046.08 341.338C1071.49 360.1 1094.22 373.904 1115.56 383.543C1156.68 402.183 1193.66 405.278 1225.49 392.744C1273.27 373.939 1297.62 326.243 1321.17 280.117C1329.28 264.227 1337.67 247.798 1346.86 232.888C1368.56 197.718 1398.96 166.994 1434.8 144.038C1470.9 120.905 1511.71 106.204 1552.81 101.528C1594.12 96.8293 1637.37 101.966 1677.89 116.377C1718.45 130.802 1755.26 154.176 1784.35 183.963L1783.34 184.946C1724.68 124.87 1636.41 93.4413 1552.97 102.926C1470.52 112.31 1392 162.39 1348.06 233.628C1338.89 248.488 1330.52 264.894 1322.42 280.758C1310.63 303.853 1298.44 327.734 1283.38 347.807C1275.26 358.638 1266.99 367.5 1258.11 374.896C1248.12 383.218 1237.61 389.484 1226.01 394.052C1212.99 399.192 1199.08 401.768 1184.51 401.768Z" fill="url(#paint26_linear_1_4633)"/>
<path d="M1175.39 406.668C1173.07 406.668 1170.74 406.598 1168.39 406.459C1153.58 405.583 1137.78 401.914 1121.43 395.555C1095.05 385.293 1066.82 368.06 1035.14 342.867C1022.84 333.086 1010.47 322.943 998.5 313.13C957.847 279.801 915.807 245.335 869.385 219.142C820.97 191.827 747.281 162.927 671.174 180.381C610.999 194.179 561.598 234.44 513.827 273.379C492.585 290.69 470.621 308.59 447.926 324.016C425.919 338.975 402.249 352.109 377.573 363.059C353.141 373.902 327.531 382.685 301.448 389.168C275.368 395.651 248.624 399.883 221.958 401.745C195.028 403.625 167.962 403.103 141.511 400.193C115.06 397.281 88.5302 391.906 62.6533 384.214C37.0316 376.596 11.848 366.65 -12.1986 354.65C-36.2451 342.65 -59.3345 328.503 -80.8227 312.611C-102.525 296.555 -122.772 278.586 -141 259.198L-139.944 258.203C-66.9285 335.862 35.7147 387.088 141.67 398.749C247.626 410.41 358.954 382.731 447.108 322.809C469.751 307.418 491.689 289.539 512.907 272.248C536.861 252.726 561.63 232.538 587.44 215.925C616.409 197.28 643.693 185.19 670.846 178.962C702.713 171.655 737.152 171.957 773.216 179.861C805.228 186.878 837.823 199.667 870.093 217.875C916.625 244.129 958.714 278.635 999.417 312.004C1011.38 321.814 1023.75 331.955 1036.04 341.73C1107.78 398.781 1166.24 417.125 1214.74 397.812C1262.09 378.958 1285.13 329.988 1307.41 282.632C1315.25 265.971 1323.35 248.744 1332.39 233.115C1353.51 196.601 1383.89 164.555 1420.25 140.447C1456.61 116.337 1497.94 100.821 1539.8 95.5736C1581.65 90.3263 1625.54 95.1589 1666.73 109.549C1707.91 123.939 1745.26 147.493 1774.74 177.666L1773.7 178.678C1714.12 117.7 1624.57 86.4075 1539.98 97.0124C1455.39 107.617 1376.33 160.047 1333.65 233.843C1324.64 249.417 1316.55 266.618 1308.72 283.25C1297.55 306.995 1286 331.546 1271.48 352.092C1263.65 363.175 1255.62 372.225 1246.92 379.758C1237.14 388.228 1226.79 394.575 1215.28 399.161C1202.74 404.15 1189.36 406.668 1175.39 406.668Z" fill="url(#paint27_linear_1_4633)"/>
</g>
<defs>
<linearGradient id="paint0_linear_1_4633" x1="2278.53" y1="53.5212" x2="2266.69" y2="513.743" gradientUnits="userSpaceOnUse">
<stop stop-color="#0357D6"/>
<stop offset="0.96875" stop-color="#00A3FF"/>
<stop offset="1" stop-color="#18CAE2"/>
</linearGradient>
<linearGradient id="paint1_linear_1_4633" x1="2268.63" y1="65.208" x2="2258.06" y2="499.869" gradientUnits="userSpaceOnUse">
<stop stop-color="#0357D6"/>
<stop offset="0.96875" stop-color="#00A3FF"/>
<stop offset="1" stop-color="#18CAE2"/>
</linearGradient>
<linearGradient id="paint2_linear_1_4633" x1="2258.73" y1="76.8332" x2="2249.36" y2="486.017" gradientUnits="userSpaceOnUse">
<stop stop-color="#0357D6"/>
<stop offset="0.96875" stop-color="#00A3FF"/>
<stop offset="1" stop-color="#18CAE2"/>
</linearGradient>
<linearGradient id="paint3_linear_1_4633" x1="2248.82" y1="88.3787" x2="2240.56" y2="472.175" gradientUnits="userSpaceOnUse">
<stop stop-color="#0357D6"/>
<stop offset="0.96875" stop-color="#00A3FF"/>
<stop offset="1" stop-color="#18CAE2"/>
</linearGradient>
<linearGradient id="paint4_linear_1_4633" x1="2238.92" y1="99.7388" x2="2231.7" y2="458.38" gradientUnits="userSpaceOnUse">
<stop stop-color="#0357D6"/>
<stop offset="0.96875" stop-color="#00A3FF"/>
<stop offset="1" stop-color="#18CAE2"/>
</linearGradient>
<linearGradient id="paint5_linear_1_4633" x1="2229.02" y1="110.914" x2="2222.77" y2="444.637" gradientUnits="userSpaceOnUse">
<stop stop-color="#0357D6"/>
<stop offset="0.96875" stop-color="#00A3FF"/>
<stop offset="1" stop-color="#18CAE2"/>
</linearGradient>
<linearGradient id="paint6_linear_1_4633" x1="2219.13" y1="121.802" x2="2213.76" y2="430.955" gradientUnits="userSpaceOnUse">
<stop stop-color="#0357D6"/>
<stop offset="0.96875" stop-color="#00A3FF"/>
<stop offset="1" stop-color="#18CAE2"/>
</linearGradient>
<linearGradient id="paint7_linear_1_4633" x1="2209.23" y1="132.293" x2="2204.66" y2="417.39" gradientUnits="userSpaceOnUse">
<stop stop-color="#0357D6"/>
<stop offset="0.96875" stop-color="#00A3FF"/>
<stop offset="1" stop-color="#18CAE2"/>
</linearGradient>
<linearGradient id="paint8_linear_1_4633" x1="2199.35" y1="142.181" x2="2195.49" y2="404.001" gradientUnits="userSpaceOnUse">
<stop stop-color="#0357D6"/>
<stop offset="0.96875" stop-color="#00A3FF"/>
<stop offset="1" stop-color="#18CAE2"/>
</linearGradient>
<linearGradient id="paint9_linear_1_4633" x1="2189.43" y1="151.084" x2="2186.19" y2="390.887" gradientUnits="userSpaceOnUse">
<stop stop-color="#0357D6"/>
<stop offset="0.96875" stop-color="#00A3FF"/>
<stop offset="1" stop-color="#18CAE2"/>
</linearGradient>
<linearGradient id="paint10_linear_1_4633" x1="2179.52" y1="158.342" x2="2176.79" y2="378.183" gradientUnits="userSpaceOnUse">
<stop stop-color="#0357D6"/>
<stop offset="0.96875" stop-color="#00A3FF"/>
<stop offset="1" stop-color="#18CAE2"/>
</linearGradient>
<linearGradient id="paint11_linear_1_4633" x1="2169.65" y1="164.266" x2="2167.2" y2="372.218" gradientUnits="userSpaceOnUse">
<stop stop-color="#0357D6"/>
<stop offset="0.96875" stop-color="#00A3FF"/>
<stop offset="1" stop-color="#18CAE2"/>
</linearGradient>
<linearGradient id="paint12_linear_1_4633" x1="2159.73" y1="170.414" x2="2157.39" y2="373.924" gradientUnits="userSpaceOnUse">
<stop stop-color="#0357D6"/>
<stop offset="0.96875" stop-color="#00A3FF"/>
<stop offset="1" stop-color="#18CAE2"/>
</linearGradient>
<linearGradient id="paint13_linear_1_4633" x1="2149.84" y1="176.603" x2="2147.57" y2="376.717" gradientUnits="userSpaceOnUse">
<stop stop-color="#0357D6"/>
<stop offset="0.96875" stop-color="#00A3FF"/>
<stop offset="1" stop-color="#18CAE2"/>
</linearGradient>
<linearGradient id="paint14_linear_1_4633" x1="2139.97" y1="179.56" x2="2137.67" y2="380.689" gradientUnits="userSpaceOnUse">
<stop stop-color="#0357D6"/>
<stop offset="0.96875" stop-color="#00A3FF"/>
<stop offset="1" stop-color="#18CAE2"/>
</linearGradient>
<linearGradient id="paint15_linear_1_4633" x1="2130.05" y1="174.17" x2="2127.49" y2="386.7" gradientUnits="userSpaceOnUse">
<stop stop-color="#0357D6"/>
<stop offset="0.96875" stop-color="#00A3FF"/>
<stop offset="1" stop-color="#18CAE2"/>
</linearGradient>
<linearGradient id="paint16_linear_1_4633" x1="2120.18" y1="168.717" x2="2117.33" y2="392.948" gradientUnits="userSpaceOnUse">
<stop stop-color="#0357D6"/>
<stop offset="0.96875" stop-color="#00A3FF"/>
<stop offset="1" stop-color="#18CAE2"/>
</linearGradient>
<linearGradient id="paint17_linear_1_4633" x1="2110.27" y1="163.206" x2="2107.1" y2="399.372" gradientUnits="userSpaceOnUse">
<stop stop-color="#0357D6"/>
<stop offset="0.96875" stop-color="#00A3FF"/>
<stop offset="1" stop-color="#18CAE2"/>
</linearGradient>
<linearGradient id="paint18_linear_1_4633" x1="2100.38" y1="157.651" x2="2096.87" y2="405.94" gradientUnits="userSpaceOnUse">
<stop stop-color="#0357D6"/>
<stop offset="0.96875" stop-color="#00A3FF"/>
<stop offset="1" stop-color="#18CAE2"/>
</linearGradient>
<linearGradient id="paint19_linear_1_4633" x1="2090.49" y1="152.032" x2="2086.62" y2="412.581" gradientUnits="userSpaceOnUse">
<stop stop-color="#0357D6"/>
<stop offset="0.96875" stop-color="#00A3FF"/>
<stop offset="1" stop-color="#18CAE2"/>
</linearGradient>
<linearGradient id="paint20_linear_1_4633" x1="2080.6" y1="146.377" x2="2076.35" y2="419.362" gradientUnits="userSpaceOnUse">
<stop stop-color="#0357D6"/>
<stop offset="0.96875" stop-color="#00A3FF"/>
<stop offset="1" stop-color="#18CAE2"/>
</linearGradient>
<linearGradient id="paint21_linear_1_4633" x1="2070.7" y1="140.67" x2="2066.04" y2="426.218" gradientUnits="userSpaceOnUse">
<stop stop-color="#0357D6"/>
<stop offset="0.96875" stop-color="#00A3FF"/>
<stop offset="1" stop-color="#18CAE2"/>
</linearGradient>
<linearGradient id="paint22_linear_1_4633" x1="2060.8" y1="134.932" x2="2055.71" y2="433.14" gradientUnits="userSpaceOnUse">
<stop stop-color="#0357D6"/>
<stop offset="0.96875" stop-color="#00A3FF"/>
<stop offset="1" stop-color="#18CAE2"/>
</linearGradient>
<linearGradient id="paint23_linear_1_4633" x1="2050.9" y1="129.16" x2="2045.37" y2="440.109" gradientUnits="userSpaceOnUse">
<stop stop-color="#0357D6"/>
<stop offset="0.96875" stop-color="#00A3FF"/>
<stop offset="1" stop-color="#18CAE2"/>
</linearGradient>
<linearGradient id="paint24_linear_1_4633" x1="2041.01" y1="123.359" x2="2035" y2="447.069" gradientUnits="userSpaceOnUse">
<stop stop-color="#0357D6"/>
<stop offset="0.96875" stop-color="#00A3FF"/>
<stop offset="1" stop-color="#18CAE2"/>
</linearGradient>
<linearGradient id="paint25_linear_1_4633" x1="2031.11" y1="117.512" x2="2024.61" y2="454.123" gradientUnits="userSpaceOnUse">
<stop stop-color="#0357D6"/>
<stop offset="0.96875" stop-color="#00A3FF"/>
<stop offset="1" stop-color="#18CAE2"/>
</linearGradient>
<linearGradient id="paint26_linear_1_4633" x1="2021.2" y1="111.623" x2="2014.18" y2="461.181" gradientUnits="userSpaceOnUse">
<stop stop-color="#0357D6"/>
<stop offset="0.96875" stop-color="#00A3FF"/>
<stop offset="1" stop-color="#18CAE2"/>
</linearGradient>
<linearGradient id="paint27_linear_1_4633" x1="2011.33" y1="105.74" x2="2003.77" y2="468.278" gradientUnits="userSpaceOnUse">
<stop stop-color="#0357D6"/>
<stop offset="0.96875" stop-color="#00A3FF"/>
<stop offset="1" stop-color="#18CAE2"/>
</linearGradient>
</defs>
</svg>
