<svg width="47" height="41" viewBox="0 0 47 41" fill="none" xmlns="http://www.w3.org/2000/svg">
<path d="M31.4234 9.74199C26.5762 6.6644 20.0605 6.70646 15.204 10.0535C10.3476 13.4005 8.50731 19.1172 10.4062 24.2272C12.7594 21.8138 16.2451 18.9741 20.2699 16.2003C24.2949 13.4263 28.2412 11.1439 31.4242 9.74145L31.4234 9.74199Z" fill="#0357D6"/>
<path d="M38.1117 10.1136C37.387 9.23403 35.6571 9.39822 32.6982 10.635L32.2457 10.8296C29.1176 12.1831 25.1695 14.461 21.1279 17.2463C17.0864 20.0315 13.6036 22.8747 11.319 25.2514L10.9897 25.5956C9.92897 26.7275 9.24342 27.66 8.90192 28.4218C8.56619 29.1796 8.58514 29.7686 8.94957 30.2109C9.67872 31.0959 11.4101 30.9223 14.3809 29.6773C19.3048 33.6554 26.5809 33.9405 31.8767 30.2909C36.7353 26.9425 38.5684 21.2329 36.6715 16.1215C36.2257 16.5791 35.7419 17.0463 35.2141 17.5268C35.2695 17.5721 35.3207 17.6121 35.3706 17.6612C35.7759 18.0421 35.9947 18.5516 35.9855 19.0844C35.9778 19.7079 35.661 20.2774 35.1127 20.6552C34.7276 20.9206 34.2418 21.063 33.7586 21.0537L30.2524 21.0044C29.6697 20.9963 29.1245 20.7787 28.7192 20.3978C28.3154 20.0075 28.0951 19.5074 28.1 18.9693L28.1662 15.7645C28.1739 15.141 28.4907 14.5715 29.0332 14.1977C29.4241 13.9283 29.9042 13.7898 30.3888 13.7899C31.1219 13.8029 31.7726 14.1485 32.1577 14.6605C32.6734 14.1879 33.1398 13.7326 33.5612 13.3006L33.8176 12.9569C34.0506 12.6957 34.1695 12.3964 34.2362 12.1C34.0929 11.9481 33.9535 11.8016 33.8044 11.6538C36.2688 10.6826 36.9163 10.9132 36.9336 10.9013C36.9365 10.9159 36.9617 11.1241 36.6898 11.6377C36.4191 12.1417 35.8457 12.9549 34.6495 14.1889C33.6646 15.2021 32.427 16.3305 31.0511 17.4794L31.084 15.8101C31.0891 15.4388 30.7657 15.1352 30.3656 15.1268C29.9596 15.1224 29.6274 15.4183 29.6223 15.7895L29.5619 18.9902C29.5569 19.3614 29.8802 19.665 30.2862 19.6694L33.7866 19.7227C33.9531 19.7251 34.1121 19.6737 34.2345 19.5893C34.4093 19.4688 34.5273 19.2787 34.524 19.064C34.5335 18.6981 34.2159 18.3905 33.81 18.3861L32.1613 18.3605C33.5329 17.2062 34.7588 16.0859 35.7437 15.0727C38.124 12.6129 38.8772 11.0409 38.1129 10.1133L38.1117 10.1136ZM13.2463 28.6792C10.7993 29.6385 10.1464 29.4115 10.1287 29.4237C10.1182 29.389 10.0498 28.7509 11.7441 26.8562C11.9654 27.1799 12.1982 27.496 12.4484 27.7998C12.6989 28.1037 12.9668 28.3953 13.2463 28.6793L13.2463 28.6792Z" fill="#0357D6"/>
<path d="M38.1117 10.1136C37.387 9.23403 35.6571 9.39822 32.6982 10.635L32.2457 10.8296C29.1176 12.1831 25.1695 14.461 21.1279 17.2463C17.0864 20.0315 13.6036 22.8747 11.319 25.2514L10.9897 25.5956C9.92897 26.7275 9.24342 27.66 8.90192 28.4218C8.56619 29.1796 8.58514 29.7686 8.94957 30.2109C9.67872 31.0959 11.4101 30.9223 14.3809 29.6773C19.3048 33.6554 26.5809 33.9405 31.8767 30.2909C36.7353 26.9425 38.5684 21.2329 36.6715 16.1215C36.2257 16.5791 35.7419 17.0463 35.2141 17.5268C35.2695 17.5721 35.3207 17.6121 35.3706 17.6612C35.7759 18.0421 35.9947 18.5516 35.9855 19.0844C35.9778 19.7079 35.661 20.2774 35.1127 20.6552C34.7276 20.9206 34.2418 21.063 33.7586 21.0537L30.2524 21.0044C29.6697 20.9963 29.1245 20.7787 28.7192 20.3978C28.3154 20.0075 28.0951 19.5074 28.1 18.9693L28.1662 15.7645C28.1739 15.141 28.4907 14.5715 29.0332 14.1977C29.4241 13.9283 29.9042 13.7898 30.3888 13.7899C31.1219 13.8029 31.7726 14.1485 32.1577 14.6605C32.6734 14.1879 33.1398 13.7326 33.5612 13.3006L33.8176 12.9569C34.0506 12.6957 34.1695 12.3964 34.2362 12.1C34.0929 11.9481 33.9535 11.8016 33.8044 11.6538C36.2688 10.6826 36.9163 10.9132 36.9336 10.9013C36.9365 10.9159 36.9617 11.1241 36.6898 11.6377C36.4191 12.1417 35.8457 12.9549 34.6495 14.1889C33.6646 15.2021 32.427 16.3305 31.0511 17.4794L31.084 15.8101C31.0891 15.4388 30.7657 15.1352 30.3656 15.1268C29.9596 15.1224 29.6274 15.4183 29.6223 15.7895L29.5619 18.9902C29.5569 19.3614 29.8802 19.665 30.2862 19.6694L33.7866 19.7227C33.9531 19.7251 34.1121 19.6737 34.2345 19.5893C34.4093 19.4688 34.5273 19.2787 34.524 19.064C34.5335 18.6981 34.2159 18.3905 33.81 18.3861L32.1613 18.3605C33.5329 17.2062 34.7588 16.0859 35.7437 15.0727C38.124 12.6129 38.8772 11.0409 38.1129 10.1133L38.1117 10.1136ZM13.2463 28.6792C10.7993 29.6385 10.1464 29.4115 10.1287 29.4237C10.1182 29.389 10.0498 28.7509 11.7441 26.8562C11.9654 27.1799 12.1982 27.496 12.4484 27.7998C12.6989 28.1037 12.9668 28.3953 13.2463 28.6793L13.2463 28.6792Z" fill="#0357D6"/>
</svg>
